<?xml version="1.0" standalone="no"?>
<!DOCTYPE svg PUBLIC "-//W3C//DTD SVG 1.1//EN" "http://www.w3.org/Graphics/SVG/1.1/DTD/svg11.dtd" >
<svg xmlns="http://www.w3.org/2000/svg">
<metadata>Generated by IcoMoon</metadata>
<defs>
<font id="implanf" horiz-adv-x="1024">
<font-face units-per-em="1024" ascent="960" descent="-64" />
<missing-glyph horiz-adv-x="1024" />
<glyph unicode="&#x20;" horiz-adv-x="512" d="" />
<glyph unicode="&#xe900;" glyph-name="visibility" d="M512 576c70 0 128-58 128-128s-58-128-128-128-128 58-128 128 58 128 128 128zM512 234c118 0 214 96 214 214s-96 214-214 214-214-96-214-214 96-214 214-214zM512 768c214 0 396-132 470-320-74-188-256-320-470-320s-396 132-470 320c74 188 256 320 470 320z" />
<glyph unicode="&#xe901;" glyph-name="visibility_off" d="M506 576h6c70 0 128-58 128-128v-8zM322 542c-14-28-24-60-24-94 0-118 96-214 214-214 34 0 66 10 94 24l-66 66c-8-2-18-4-28-4-70 0-128 58-128 128 0 10 2 20 4 28zM86 778l54 54 756-756-54-54c-47.968 47.365-96.266 94.401-144 142-58-24-120-36-186-36-214 0-396 132-470 320 34 84 90 156 160 212-39.017 38.983-77.307 78.693-116 118zM512 662c-28 0-54-6-78-16l-92 92c52 20 110 30 170 30 214 0 394-132 468-320-32-80-82-148-146-202l-124 124c10 24 16 50 16 78 0 118-96 214-214 214z" />
<glyph unicode="&#xe902;" glyph-name="accessible" d="M548 192h88c-20-98-106-170-210-170-118 0-212 94-212 212 0 104 72 190 170 210v-88c-50-18-86-66-86-122 0-70 58-128 128-128 56 0 104 36 122 86zM426 572c0 59.978 66.716 113.020 128 78h2v-2c10-4 18-10 26-18l56-62c42-46 106-78 172-78v-84c-74 0-156 36-212 82v-146h128c46 0 84-40 84-86v-234h-84v212h-214c-46 0-86 40-86 86v252zM426 790c0 48 38 84 86 84s86-36 86-84-38-86-86-86-86 38-86 86z" />
<glyph unicode="&#xe903;" glyph-name="account_circle" d="M512 140c106 0 200 56 256 138-2 84-172 132-256 132-86 0-254-48-256-132 56-82 150-138 256-138zM512 746c-70 0-128-58-128-128s58-128 128-128 128 58 128 128-58 128-128 128zM512 874c236 0 426-190 426-426s-190-426-426-426-426 190-426 426 190 426 426 426z" />
<glyph unicode="&#xe904;" glyph-name="add" d="M810 406h-256v-256h-84v256h-256v84h256v256h84v-256h256v-84z" />
<glyph unicode="&#xe905;" glyph-name="add_location" d="M682 534v84h-128v128h-84v-128h-128v-84h128v-128h84v128h128zM512 874c164 0 298-134 298-298 0-224-298-554-298-554s-298 330-298 554c0 164 134 298 298 298z" />
<glyph unicode="&#xe906;" glyph-name="arrow_back" d="M854 490v-84h-520l238-240-60-60-342 342 342 342 60-60-238-240h520z" />
<glyph unicode="&#xe907;" glyph-name="arrow_downward" d="M854 448l-342-342-342 342 62 60 238-238v520h84v-520l240 238z" />
<glyph unicode="&#xe908;" glyph-name="arrow_drop_down" d="M298 534h428l-214-214z" />
<glyph unicode="&#xe909;" glyph-name="arrow_drop_up" d="M298 362l214 214 214-214h-428z" />
<glyph unicode="&#xe90a;" glyph-name="arrow_forward" d="M512 790l342-342-342-342-60 60 238 240h-520v84h520l-238 240z" />
<glyph unicode="&#xe90b;" glyph-name="arrow_upward" d="M170 448l342 342 342-342-62-60-238 238v-520h-84v520l-240-238z" />
<glyph unicode="&#xe90c;" glyph-name="cached" d="M256 448h128l-170-170-172 170h128c0 188 154 342 342 342 66 0 130-20 182-54l-62-62c-36 20-76 30-120 30-142 0-256-114-256-256zM810 618l172-170h-128c0-188-154-342-342-342-66 0-130 20-182 54l62 62c36-20 76-30 120-30 142 0 256 114 256 256h-128z" />
<glyph unicode="&#xe90d;" glyph-name="check" d="M384 270l452 452 60-60-512-512-238 238 60 60z" />
<glyph unicode="&#xe90e;" glyph-name="navigate_before" d="M658 644l-196-196 196-196-60-60-256 256 256 256z" />
<glyph unicode="&#xe90f;" glyph-name="navigate_next" d="M426 704l256-256-256-256-60 60 196 196-196 196z" />
<glyph unicode="&#xe910;" glyph-name="close" d="M810 686l-238-238 238-238-60-60-238 238-238-238-60 60 238 238-238 238 60 60 238-238 238 238z" />
<glyph unicode="&#xe911;" glyph-name="crop_free" d="M810 832c46 0 86-40 86-86v-170h-86v170h-170v86h170zM810 150v170h86v-170c0-46-40-86-86-86h-170v86h170zM214 320v-170h170v-86h-170c-46 0-86 40-86 86v170h86zM128 746c0 46 40 86 86 86h170v-86h-170v-170h-86v170z" />
<glyph unicode="&#xe912;" glyph-name="dehaze" d="M86 726h852v-86h-852v86zM86 512h852v-86h-852v86zM86 298h852v-84h-852v84z" />
<glyph unicode="&#xe913;" glyph-name="delete" d="M810 790v-86h-596v86h148l44 42h212l44-42h148zM256 150v512h512v-512c0-46-40-86-86-86h-340c-46 0-86 40-86 86z" />
<glyph unicode="&#xe914;" glyph-name="delete_forever" d="M662 790h148v-86h-596v86h148l44 42h212zM360 454l92-92-90-90 60-60 90 90 90-90 60 60-90 90 90 92-60 60-90-92-90 92zM256 150v512h512v-512c0-46-40-86-86-86h-340c-46 0-86 40-86 86z" />
<glyph unicode="&#xe915;" glyph-name="directions" d="M598 342l148 148-148 150v-106h-214c-24 0-42-20-42-44v-170h84v128h172v-106zM926 478c16-18 16-44 0-60l-384-384c-16-16-44-16-60 0l-384 384c-16 16-16 44 0 60l384 384c16 16 44 16 60 0z" />
<glyph unicode="&#xe916;" glyph-name="directions_car" d="M214 490h596l-64 192h-468zM746 278c36 0 64 28 64 64s-28 64-64 64-64-28-64-64 28-64 64-64zM278 278c36 0 64 28 64 64s-28 64-64 64-64-28-64-64 28-64 64-64zM808 704l88-256v-342c0-24-18-42-42-42h-44c-24 0-42 18-42 42v44h-512v-44c0-24-18-42-42-42h-44c-24 0-42 18-42 42v342l88 256c8 26 34 42 62 42h468c28 0 54-16 62-42z" />
<glyph unicode="&#xe917;" glyph-name="directions_walk" d="M418 580l-120-602h90l78 342 88-86v-256h86v320l-90 86 26 128c56-64 140-106 234-106v84c-82 0-148 44-182 104l-44 68c-18 26-42 42-72 42-12 0-22-4-34-4l-222-94v-200h86v144l76 30zM576 726c-46 0-86 38-86 84s40 86 86 86 86-40 86-86-40-84-86-84z" />
<glyph unicode="&#xe918;" glyph-name="do_not_disturb_alt" d="M512 106c188 0 342 154 342 342 0 76-28 150-74 210l-478-478c60-46 134-74 210-74zM170 448c0-76 28-150 74-210l478 478c-60 46-134 74-210 74-188 0-342-154-342-342zM512 874c234 0 426-192 426-426s-192-426-426-426-426 192-426 426 192 426 426 426z" />
<glyph unicode="&#xe919;" glyph-name="error" d="M554 406v256h-84v-256h84zM554 234v86h-84v-86h84zM512 874c236 0 426-190 426-426s-190-426-426-426-426 190-426 426 190 426 426 426z" />
<glyph unicode="&#xe91a;" glyph-name="insert_invitation" d="M810 150v468h-596v-468h596zM682 918h86v-86h42c46 0 86-40 86-86v-596c0-46-40-86-86-86h-596c-48 0-86 40-86 86v596c0 46 38 86 86 86h42v86h86v-86h340v86zM726 448v-214h-214v214h214z" />
<glyph unicode="&#xe91b;" glyph-name="exit_to_app" d="M810 832c46 0 86-40 86-86v-596c0-46-40-86-86-86h-596c-48 0-86 40-86 86v170h86v-170h596v596h-596v-170h-86v170c0 46 38 86 86 86h596zM430 294l110 112h-412v84h412l-110 112 60 60 214-214-214-214z" />
<glyph unicode="&#xe91c;" glyph-name="expand_less" d="M512 618l256-256-60-60-196 196-196-196-60 60z" />
<glyph unicode="&#xe91d;" glyph-name="expand_more" d="M708 594l60-60-256-256-256 256 60 60 196-196z" />
<glyph unicode="&#xe91e;" glyph-name="explore" d="M606 354l162 350-350-162-162-350zM512 874c236 0 426-190 426-426s-190-426-426-426-426 190-426 426 190 426 426 426zM512 494c26 0 46-20 46-46s-20-46-46-46-46 20-46 46 20 46 46 46z" />
<glyph unicode="&#xe91f;" glyph-name="favorite" d="M512 50l-62 56c-220 200-364 330-364 492 0 132 102 234 234 234 74 0 146-36 192-90 46 54 118 90 192 90 132 0 234-102 234-234 0-162-144-294-364-494z" />
<glyph unicode="&#xe920;" glyph-name="get_app" d="M214 192h596v-86h-596v86zM810 576l-298-298-298 298h170v256h256v-256h170z" />
<glyph unicode="&#xe921;" glyph-name="forward" d="M512 618v172l342-342-342-342v172h-342v340h342z" />
<glyph unicode="&#xe922;" glyph-name="fullscreen" d="M598 746h212v-212h-84v128h-128v84zM726 234v128h84v-212h-212v84h128zM214 534v212h212v-84h-128v-128h-84zM298 362v-128h128v-84h-212v212h84z" />
<glyph unicode="&#xe923;" glyph-name="fullscreen_exit" d="M682 618h128v-84h-212v212h84v-128zM598 150v212h212v-84h-128v-128h-84zM342 618v128h84v-212h-212v84h128zM214 278v84h212v-212h-84v128h-128z" />
<glyph unicode="&#xe924;" glyph-name="my_location" d="M512 150c166 0 298 132 298 298s-132 298-298 298-298-132-298-298 132-298 298-298zM894 490h88v-84h-88c-20-178-162-320-340-340v-88h-84v88c-178 20-320 162-340 340h-88v84h88c20 178 162 320 340 340v88h84v-88c178-20 320-162 340-340zM512 618c94 0 170-76 170-170s-76-170-170-170-170 76-170 170 76 170 170 170z" />
<glyph unicode="&#xe925;" glyph-name="location_searching" d="M512 150c166 0 298 132 298 298s-132 298-298 298-298-132-298-298 132-298 298-298zM894 490h88v-84h-88c-20-178-162-320-340-340v-88h-84v88c-178 20-320 162-340 340h-88v84h88c20 178 162 320 340 340v88h84v-88c178-20 320-162 340-340z" />
<glyph unicode="&#xe926;" glyph-name="input" d="M470 278v128h-428v84h428v128l170-170zM896 832c46 0 86-38 86-86v-598c0-46-40-84-86-84h-768c-46 0-86 38-86 84v172h86v-172h768v600h-768v-172h-86v170c0 46 40 86 86 86h768z" />
<glyph unicode="&#xe927;" glyph-name="keyboard_arrow_down" d="M316 626l196-196 196 196 60-60-256-256-256 256z" />
<glyph unicode="&#xe928;" glyph-name="keyboard_arrow_up" d="M316 302l-60 60 256 256 256-256-60-60-196 196z" />
<glyph unicode="&#xe929;" glyph-name="keyboard_return" d="M810 662h86v-256h-648l154-154-60-60-256 256 256 256 60-60-154-154h562v172z" />
<glyph unicode="&#xe92a;" glyph-name="location_off" d="M500 470c118.353-116.98 236.568-234.098 354-352l-54-54-144 142c-72-106-144-184-144-184s-298 330-298 554c0 22 4 44 8 66l-136 136 54 54 356-356zM512 682c-32 0-58-14-78-36l-138 136c54 56 132 92 216 92 166 0 298-132 298-298 0-72-30-154-72-234l-154 156c22 20 34 46 34 78 0 58-48 106-106 106z" />
<glyph unicode="&#xe92b;" glyph-name="room" d="M512 470c58 0 106 48 106 106s-48 106-106 106-106-48-106-106 48-106 106-106zM512 874c166 0 298-132 298-298 0-224-298-554-298-554s-298 330-298 554c0 166 132 298 298 298z" />
<glyph unicode="&#xe92c;" glyph-name="sync" d="M512 192v128l170-170-170-172v128c-188 0-342 154-342 342 0 66 20 130 54 182l62-62c-20-36-30-76-30-120 0-142 114-256 256-256zM512 790c188 0 342-154 342-342 0-66-20-130-54-182l-62 62c20 36 30 76 30 120 0 142-114 256-256 256v-128l-170 170 170 172v-128z" />
<glyph unicode="&#xe92d;" glyph-name="map" d="M640 150v506l-256 90v-506zM874 832c12 0 22-10 22-22v-644c0-10-8-18-16-20l-240-82-256 90-228-88-6-2c-12 0-22 10-22 22v644c0 10 8 18 16 20l240 82 256-90 228 88z" />
<glyph unicode="&#xe92e;" glyph-name="menu" d="M128 704h768v-86h-768v86zM128 406v84h768v-84h-768zM128 192v86h768v-86h-768z" />
<glyph unicode="&#xe92f;" glyph-name="message" d="M768 618v86h-512v-86h512zM768 490v86h-512v-86h512zM768 362v86h-512v-86h512zM854 874c46 0 84-38 84-84v-512c0-46-38-86-84-86h-598l-170-170v768c0 46 38 84 84 84h684z" />
<glyph unicode="&#xe930;" glyph-name="more_horiz" d="M512 534c46 0 86-40 86-86s-40-86-86-86-86 40-86 86 40 86 86 86zM768 534c46 0 86-40 86-86s-40-86-86-86-86 40-86 86 40 86 86 86zM256 534c46 0 86-40 86-86s-40-86-86-86-86 40-86 86 40 86 86 86z" />
<glyph unicode="&#xe931;" glyph-name="more_vert" d="M512 278c46 0 86-40 86-86s-40-86-86-86-86 40-86 86 40 86 86 86zM512 534c46 0 86-40 86-86s-40-86-86-86-86 40-86 86 40 86 86 86zM512 618c-46 0-86 40-86 86s40 86 86 86 86-40 86-86-40-86-86-86z" />
<glyph unicode="&#xe932;" glyph-name="move_to_inbox" d="M682 534l-170-172-170 172h84v128h172v-128h84zM810 320v426h-598v-426h172c0-70 58-128 128-128s128 58 128 128h170zM810 832c46 0 86-40 86-86v-596c0-46-40-86-86-86h-598c-48 0-84 40-84 86v596c0 46 36 86 84 86h598z" />
<glyph unicode="&#xe933;" glyph-name="nature" d="M554 272v-166h256v-84h-596v84h256v168c-142 24-250 146-250 294 0 166 134 300 300 300s298-134 298-300c0-154-116-278-264-296z" />
<glyph unicode="&#xe934;" glyph-name="nature_people" d="M192 490c-36 0-64 28-64 64s28 64 64 64 64-28 64-64-28-64-64-64zM946 568c0-154-116-278-264-296v-166h128v-84h-682v212h-42v172c0 24 18 42 42 42h128c24 0 42-18 42-42v-172h-42v-128h342v168c-142 24-250 146-250 294 0 166 134 300 300 300s298-134 298-300z" />
<glyph unicode="&#xe935;" glyph-name="navigation" d="M512 874l320-780-30-30-290 128-290-128-30 30z" />
<glyph unicode="&#xe936;" glyph-name="near_me" d="M896 832l-322-768h-42l-112 292-292 112v42z" />
<glyph unicode="&#xe937;" glyph-name="panorama" d="M362 426l-148-192h596l-192 256-148-192zM982 192c0-46-40-86-86-86h-768c-46 0-86 40-86 86v512c0 46 40 86 86 86h768c46 0 86-40 86-86v-512z" />
<glyph unicode="&#xe938;" glyph-name="person" d="M512 362c114 0 342-56 342-170v-86h-684v86c0 114 228 170 342 170zM512 448c-94 0-170 76-170 170s76 172 170 172 170-78 170-172-76-170-170-170z" />
<glyph unicode="&#xe939;" glyph-name="power_settings_new" d="M760 740c82-70 136-176 136-292 0-212-172-384-384-384s-384 172-384 384c0 116 54 222 136 292l60-60c-66-54-110-138-110-232 0-166 132-298 298-298s298 132 298 298c0 94-42 176-110 230zM554 832v-426h-84v426h84z" />
<glyph unicode="&#xe93a;" glyph-name="remove" d="M810 406h-596v84h596v-84z" />
<glyph unicode="&#xe93b;" glyph-name="save" d="M640 576v170h-426v-170h426zM512 150c70 0 128 58 128 128s-58 128-128 128-128-58-128-128 58-128 128-128zM726 832l170-170v-512c0-46-40-86-86-86h-596c-48 0-86 40-86 86v596c0 46 38 86 86 86h512z" />
<glyph unicode="&#xe93c;" glyph-name="search" d="M406 362c106 0 192 86 192 192s-86 192-192 192-192-86-192-192 86-192 192-192zM662 362l212-212-64-64-212 212v34l-12 12c-48-42-112-66-180-66-154 0-278 122-278 276s124 278 278 278 276-124 276-278c0-68-24-132-66-180l12-12h34z" />
<glyph unicode="&#xe93d;" glyph-name="signal_wifi_off" d="M140 898c244.604-245.396 490.948-489.052 734-736l-54-54-142 142-166-206-496 618c10 8 64 52 156 94l-86 88zM1008 662l-232-290-442 440c54 12 114 20 178 20 286 0 476-156 496-170z" />
<glyph unicode="&#xe93e;" glyph-name="traffic" d="M512 576c48 0 86 40 86 86 0 48-40 84-86 84-48 0-86-36-86-84 0-46 38-86 86-86zM512 362c48 0 86 40 86 86s-40 86-86 86c-48 0-86-40-86-86s38-86 86-86zM512 150c48 0 86 38 86 84s-40 86-86 86c-48 0-86-40-86-86s38-84 86-84zM854 534c0-80-54-146-128-166v-48h128c0-80-54-144-128-164v-50c0-24-20-42-44-42h-340c-24 0-44 18-44 42v50c-74 20-128 84-128 164h128v48c-74 20-128 86-128 166h128v48c-74 20-128 84-128 164h128v44c0 24 20 42 44 42h340c24 0 44-18 44-42v-44h128c0-80-54-144-128-164v-48h128z" />
<glyph unicode="&#xe93f;" glyph-name="transfer_within_a_station" d="M246 580l-118-602h90l74 342 92-86v-256h86v322l-88 88 26 128c56-68 138-110 232-110v84c-78 0-148 44-186 106l-40 68c-14 26-42 40-72 40-10 0-22-2-32-6l-224-92v-200h84v142l76 32zM406 726c-46 0-86 38-86 84s40 86 86 86 84-40 84-86-38-84-84-84zM832 118v74l106-106-106-108v76h-234v64h234zM704 298h234v-64h-234v-74l-106 106 106 108v-76z" />
<glyph unicode="&#xe940;" glyph-name="verified_user" d="M426 234l342 342-60 60-282-280-110 110-60-60zM512 918l384-172v-256c0-236-164-458-384-512-220 54-384 276-384 512v256z" />
<glyph unicode="&#xe941;" glyph-name="youtube_searched_for" d="M726 362l212-212-62-64-214 214v32l-12 12c-48-42-112-66-180-66-52 0-100 14-142 38l64 62c24-10 50-16 78-16 106 0 192 86 192 192s-86 192-192 192-192-86-192-192h148l-176-170-164 170h106c0 150 124 278 278 278s278-124 278-278c0-70-26-132-68-180l12-12h34z" />
<glyph unicode="&#xe942;" glyph-name="zoom_in" d="M512 534h-86v-86h-42v86h-86v42h86v86h42v-86h86v-42zM406 362c106 0 192 86 192 192s-86 192-192 192-192-86-192-192 86-192 192-192zM662 362l212-212-64-64-212 212v34l-12 12c-48-42-112-66-180-66-154 0-278 122-278 276s124 278 278 278 276-124 276-278c0-68-24-132-66-180l12-12h34z" />
<glyph unicode="&#xe943;" glyph-name="zoom_out" d="M298 576h214v-42h-214v42zM406 362c106 0 192 86 192 192s-86 192-192 192-192-86-192-192 86-192 192-192zM662 362l212-212-64-64-212 212v34l-12 12c-48-42-112-66-180-66-154 0-278 122-278 276s124 278 278 278 276-124 276-278c0-68-24-132-66-180l12-12h34z" />
<glyph unicode="&#xe944;" glyph-name="arrow-downward" d="M800.853 389.973c-7.882 9.459-19.666 15.435-32.846 15.435-10.422 0-19.971-3.736-27.38-9.943l0.067 0.054-186.027-154.88v506.027c0 23.564-19.103 42.667-42.667 42.667s-42.667-19.103-42.667-42.667v0-506.027l-186.027 154.88c-7.346 6.139-16.891 9.867-27.307 9.867-23.594 0-42.72-19.126-42.72-42.72 0-13.178 5.967-24.962 15.346-32.798l0.068-0.055 256-213.333 6.4-3.84 5.547-2.987c4.556-1.811 9.835-2.861 15.36-2.861s10.804 1.050 15.649 2.961l-0.289-0.101 5.547 2.987 6.4 3.84 256 213.333c9.459 7.882 15.435 19.666 15.435 32.846 0 10.422-3.736 19.971-9.943 27.38l0.054-0.067z" />
<glyph unicode="&#xe945;" glyph-name="arrow-left" d="M577.707 192c-0.031 0-0.068 0-0.105 0-21.057 0-40.384 7.405-55.52 19.752l0.159-0.126-217.6 179.627c-16.733 13.404-27.357 33.834-27.357 56.747s10.624 43.343 27.214 56.636l0.143 0.111 217.6 179.627c15.198 12.258 34.745 19.676 56.026 19.676 13.902 0 27.064-3.166 38.805-8.816l-0.537 0.233c26.345-11.823 44.438-37.675 44.8-67.793v-359.3c-0.362-30.165-18.455-56.017-44.325-67.649l-0.475-0.191c-11.398-5.312-24.736-8.448-38.796-8.533h-0.030z" />
<glyph unicode="&#xe946;" glyph-name="arrow-right" d="M446.293 192c-14.091 0.086-27.428 3.221-39.415 8.778l0.588-0.245c-26.345 11.823-44.438 37.675-44.8 67.793v359.3c0.362 30.165 18.455 56.017 44.325 67.649l0.475 0.191c11.204 5.417 24.366 8.583 38.268 8.583 21.28 0 40.828-7.419 56.197-19.81l-0.172 0.134 217.6-179.627c16.733-13.404 27.357-33.834 27.357-56.747s-10.624-43.343-27.214-56.636l-0.143-0.111-217.6-179.627c-14.977-12.222-34.305-19.627-55.362-19.627-0.037 0-0.074 0-0.111 0h0.006z" />
<glyph unicode="&#xe947;" glyph-name="arrow-upward" d="M223.147 506.027c7.882-9.459 19.666-15.435 32.846-15.435 10.422 0 19.971 3.736 27.38 9.943l-0.067-0.054 186.027 154.88v-506.027c0-23.564 19.103-42.667 42.667-42.667s42.667 19.103 42.667 42.667v0 506.027l186.027-154.88c7.346-6.139 16.891-9.867 27.307-9.867 23.594 0 42.72 19.126 42.72 42.72 0 13.178-5.967 24.962-15.346 32.798l-0.068 0.055-256 213.333-6.4 3.84-5.547 2.987c-4.556 1.811-9.835 2.861-15.36 2.861s-10.804-1.050-15.649-2.961l0.289 0.101-5.547-2.987-6.4-3.84-256-213.333c-9.459-7.882-15.435-19.666-15.435-32.846 0-10.422 3.736-19.971 9.943-27.38l-0.054 0.067z" />
<glyph unicode="&#xe948;" glyph-name="chevron-down" d="M512 298.667c-0.073 0-0.16-0.001-0.247-0.001-11.721 0-22.338 4.726-30.049 12.377l-170.664 170.664c-7.753 7.753-12.548 18.463-12.548 30.293 0 23.661 19.181 42.841 42.841 42.841 11.83 0 22.541-4.795 30.293-12.548v0l140.373-141.227 140.8 135.68c7.842 8.695 19.148 14.136 31.725 14.136 23.564 0 42.667-19.103 42.667-42.667 0-13.215-6.008-25.026-15.441-32.853l-0.070-0.057-170.667-164.693c-7.521-7.259-17.723-11.783-28.981-11.946h-0.032z" />
<glyph unicode="&#xe949;" glyph-name="chevron-left" d="M570.027 234.667c-12.081 0.048-22.971 5.109-30.704 13.21l-0.016 0.017-164.693 170.667c-7.542 7.69-12.197 18.235-12.197 29.867s4.655 22.177 12.203 29.874l170.66 170.66c7.753 7.753 18.463 12.548 30.293 12.548 23.661 0 42.841-19.181 42.841-42.841 0-11.83-4.795-22.541-12.548-30.293v0l-140.8-140.373 135.68-140.8c7.668-7.712 12.407-18.343 12.407-30.080s-4.74-22.368-12.409-30.082l0.002 0.002c-7.709-7.651-18.328-12.379-30.051-12.379-0.235 0-0.47 0.002-0.704 0.006h0.035z" />
<glyph unicode="&#xe94a;" glyph-name="chevron-right" d="M448 234.667c-0.073 0-0.16-0.001-0.247-0.001-11.721 0-22.338 4.726-30.049 12.377l0.003-0.003c-7.795 7.733-12.621 18.45-12.621 30.293s4.826 22.56 12.618 30.291l0.003 0.003 141.227 140.373-135.68 141.227c-7.668 7.712-12.407 18.343-12.407 30.080s4.74 22.368 12.409 30.082l-0.002-0.002c7.733 7.795 18.45 12.621 30.293 12.621s22.56-4.826 30.291-12.618l0.003-0.003 164.693-170.667c7.542-7.69 12.197-18.235 12.197-29.867s-4.655-22.177-12.203-29.874l-170.66-170.66c-7.498-8.080-18.042-13.242-29.794-13.651l-0.073-0.002z" />
<glyph unicode="&#xe94b;" glyph-name="chevron-up" d="M682.667 341.333c-0.073 0-0.16-0.001-0.247-0.001-11.721 0-22.338 4.726-30.049 12.377l0.003-0.003-140.373 141.227-140.8-135.68c-7.712-7.668-18.343-12.407-30.080-12.407s-22.368 4.74-30.082 12.409l0.002-0.002c-7.795 7.733-12.621 18.45-12.621 30.293s4.826 22.56 12.618 30.291l0.003 0.003 170.667 164.693c7.69 7.542 18.235 12.197 29.867 12.197s22.177-4.655 29.874-12.203l170.66-170.66c7.795-7.733 12.621-18.45 12.621-30.293s-4.826-22.56-12.618-30.291l-0.003-0.003c-7.622-7.354-17.995-11.9-29.431-11.947h-0.009z" />
<glyph unicode="&#xe94c;" glyph-name="help" d="M642 480c24 24 40 58 40 96 0 94-76 170-170 170s-170-76-170-170h84c0 46 40 86 86 86s86-40 86-86c0-24-10-44-26-60l-52-54c-30-32-50-74-50-120v-22h84c0 64 20 88 50 120zM554 150v84h-84v-84h84zM512 874c236 0 426-190 426-426s-190-426-426-426-426 190-426 426 190 426 426 426z" />
<glyph unicode="&#xe94d;" glyph-name="info" d="M554 576v86h-84v-86h84zM554 234v256h-84v-256h84zM512 874c236 0 426-190 426-426s-190-426-426-426-426 190-426 426 190 426 426 426z" />
<glyph unicode="&#xe94e;" glyph-name="report" d="M554 406v256h-84v-256h84zM512 222c30 0 56 26 56 56s-26 54-56 54-56-24-56-54 26-56 56-56zM672 832l224-224v-320l-224-224h-320l-224 224v320l224 224h320z" />
<glyph unicode="&#xe94f;" glyph-name="warning" d="M554 362v172h-84v-172h84zM554 192v86h-84v-86h84zM42 64l470 810 470-810h-940z" />
<glyph unicode="&#xe950;" glyph-name="fullscreen1" d="M598 746h212v-212h-84v128h-128v84zM726 234v128h84v-212h-212v84h128zM214 534v212h212v-84h-128v-128h-84zM298 362v-128h128v-84h-212v212h84z" />
<glyph unicode="&#xe951;" glyph-name="fullscreen_exit1" d="M682 618h128v-84h-212v212h84v-128zM598 150v212h212v-84h-128v-128h-84zM342 618v128h84v-212h-212v84h128zM214 278v84h212v-212h-84v128h-128z" />
<glyph unicode="&#xe952;" glyph-name="location_searching1" d="M512 150c166 0 298 132 298 298s-132 298-298 298-298-132-298-298 132-298 298-298zM894 490h88v-84h-88c-20-178-162-320-340-340v-88h-84v88c-178 20-320 162-340 340h-88v84h88c20 178 162 320 340 340v88h84v-88c178-20 320-162 340-340z" />
<glyph unicode="&#xe953;" glyph-name="all_out" d="M686 276c90 90 90 240 0 330s-240 90-330 0-90-240 0-330 240-90 330 0zM732 652c116-116 116-306 0-422s-306-116-422 0-116 306 0 422 306 116 422 0zM180 612v170h170zM350 100h-170v170zM862 270v-170h-170zM692 782h170v-170z" />
<glyph unicode="&#xe954;" glyph-name="android" d="M640 746v44h-42v-44h42zM426 746v44h-42v-44h42zM662 868c64-46 106-122 106-206h-512c0 84 40 160 104 206l-56 56c-8 8-8 22 0 30s22 8 30 0l64-64c34 18 74 28 114 28s78-10 112-28l64 64c8 8 22 8 30 0s8-22 0-30zM874 618c36 0 64-28 64-64v-298c0-36-28-64-64-64s-64 28-64 64v298c0 36 28 64 64 64zM150 618c36 0 64-28 64-64v-298c0-36-28-64-64-64s-64 28-64 64v298c0 36 28 64 64 64zM256 192v426h512v-426c0-24-18-42-42-42h-44v-150c0-36-28-64-64-64s-64 28-64 64v150h-84v-150c0-36-28-64-64-64s-64 28-64 64v150h-44c-24 0-42 18-42 42z" />
<glyph unicode="&#xe955;" glyph-name="announcement" d="M554 320v86h-84v-86h84zM554 490v256h-84v-256h84zM854 874c46 0 84-38 84-84v-512c0-46-38-86-84-86h-598l-170-170v768c0 46 38 84 84 84h684z" />
<glyph unicode="&#xe956;" glyph-name="apps" d="M682 106v172h172v-172h-172zM682 362v172h172v-172h-172zM426 618v172h172v-172h-172zM682 790h172v-172h-172v172zM426 362v172h172v-172h-172zM170 362v172h172v-172h-172zM170 106v172h172v-172h-172zM426 106v172h172v-172h-172zM170 618v172h172v-172h-172z" />
<glyph unicode="&#xe957;" glyph-name="center_focus_strong" d="M810 150v170h86v-170c0-46-40-86-86-86h-170v86h170zM810 832c46 0 86-40 86-86v-170h-86v170h-170v86h170zM214 746v-170h-86v170c0 46 40 86 86 86h170v-86h-170zM214 320v-170h170v-86h-170c-46 0-86 40-86 86v170h86zM512 618c94 0 170-76 170-170s-76-170-170-170-170 76-170 170 76 170 170 170z" />
<glyph unicode="&#xe958;" glyph-name="center_focus_weak" d="M512 362c46 0 86 40 86 86s-40 86-86 86-86-40-86-86 40-86 86-86zM512 618c94 0 170-76 170-170s-76-170-170-170-170 76-170 170 76 170 170 170zM810 150v170h86v-170c0-46-40-86-86-86h-170v86h170zM810 832c46 0 86-40 86-86v-170h-86v170h-170v86h170zM214 746v-170h-86v170c0 46 40 86 86 86h170v-86h-170zM214 320v-170h170v-86h-170c-46 0-86 40-86 86v170h86z" />
<glyph unicode="&#xe959;" glyph-name="find_replace" d="M710 314l206-208-62-62-208 206c-50-36-110-58-176-58-82 0-158 34-212 88l-88-88v256h256l-108-108c38-38 94-62 152-62 104 0 188 72 208 170h86c-6-50-26-96-54-134zM470 704c-104 0-190-72-210-170h-86c20 144 146 256 296 256 82 0 156-34 210-88l88 88v-256h-256l108 108c-38 38-92 62-150 62z" />
<glyph unicode="&#xe95a;" glyph-name="person_pin_circle" d="M512 362c72 0 134 36 170 92 0 56-114 88-170 88s-170-32-170-88c36-56 98-92 170-92zM512 790c-46 0-86-40-86-86 0-48 40-86 86-86s86 38 86 86c0 46-40 86-86 86zM512 874c164 0 298-134 298-298 0-224-298-554-298-554s-298 330-298 554c0 164 134 298 298 298z" />
<glyph unicode="&#xe95b;" glyph-name="pin_drop" d="M214 106h596v-84h-596v84zM426 618c0-46 40-84 86-84 48 0 86 38 86 84s-40 86-86 86-86-40-86-86zM768 618c0-192-256-468-256-468s-256 276-256 468c0 142 114 256 256 256s256-114 256-256z" />
<glyph unicode="&#xe95c;" glyph-name="public" d="M764 218c56 60 90 142 90 230 0 142-88 266-214 316v-18c0-46-40-84-86-84h-84v-86c0-24-20-42-44-42h-84v-86h256c24 0 42-18 42-42v-128h42c38 0 70-26 82-60zM470 110v82c-46 0-86 40-86 86v42l-204 204c-6-24-10-50-10-76 0-174 132-318 300-338zM512 874c236 0 426-190 426-426s-190-426-426-426-426 190-426 426 190 426 426 426z" />
<glyph unicode="&#xe95d;" glyph-name="reply" d="M426 576c298-42 428-256 470-470-106 150-256 218-470 218v-174l-298 298 298 298v-170z" />
<glyph unicode="&#xe95e;" glyph-name="settings_backup_restore" d="M512 832c212 0 384-172 384-384s-172-384-384-384c-88 0-170 30-234 80l60 60c50-34 110-54 174-54 166 0 298 132 298 298s-132 298-298 298-298-132-298-298h128l-172-170-170 170h128c0 212 172 384 384 384zM598 448c0-46-40-86-86-86s-86 40-86 86 40 86 86 86 86-40 86-86z" />
<glyph unicode="&#xe95f;" glyph-name="satellite" d="M214 192h596l-192 256-148-192-108 128zM214 448c166 0 298 134 298 300h-86c0-118-94-214-212-214v-86zM214 748v-130c70 0 128 60 128 130h-128zM810 832c46 0 86-40 86-86v-596c0-46-40-86-86-86h-596c-46 0-86 40-86 86v596c0 46 40 86 86 86h596z" />
<glyph unicode="&#xe962;" glyph-name="facebook" d="M725.333 810.667c0 11.782-9.551 21.333-21.333 21.333v0h-106.667c-3.024 0.161-6.564 0.252-10.126 0.252-108.437 0-197.067-84.806-203.183-191.711l-0.025-0.541v-115.2h-106.667c-11.782 0-21.333-9.551-21.333-21.333v0-110.933c0-11.782 9.551-21.333 21.333-21.333v0h106.667v-285.867c0-11.782 9.551-21.333 21.333-21.333v0h128c11.782 0 21.333 9.551 21.333 21.333v0 285.867h111.787c0.091-0.001 0.199-0.002 0.306-0.002 9.81 0 18.074 6.622 20.565 15.639l0.035 0.15 30.72 110.933c0.466 1.664 0.734 3.574 0.734 5.547 0 11.74-9.483 21.265-21.207 21.333h-142.939v115.2c2.24 21.656 20.391 38.401 42.453 38.401 0.075 0 0.15 0 0.225-0.001h106.655c11.782 0 21.333 9.551 21.333 21.333v0z" />
<glyph unicode="&#xe972;" glyph-name="github" d="M512 917.333c-1.403 0.015-3.061 0.024-4.721 0.024-254.822 0-461.733-205.132-464.61-459.272l-0.002-0.272c1.024-203.513 133.941-375.711 317.598-435.562l3.256-0.918c23.467-4.267 32 9.813 32 22.187s0 39.68 0 78.080c-130.56-27.733-158.293 61.44-158.293 61.44-9.044 28.536-27.453 51.925-51.549 67.116l-0.504 0.297c-42.667 28.16 3.413 27.733 3.413 27.733 30.629-4.206 56.403-21.96 71.432-46.916l0.248-0.444c17.804-30.463 50.348-50.603 87.597-50.603 17.96 0 34.826 4.682 49.445 12.892l-0.509-0.263c2.548 24.285 13.494 45.625 29.838 61.412l0.029 0.028c-104.107 11.52-213.333 50.773-213.333 226.987-0.023 1.067-0.036 2.325-0.036 3.586 0 46.634 18.028 89.057 47.494 120.68l-0.098-0.106c-6.079 16.305-9.596 35.143-9.596 54.802 0 24.050 5.264 46.871 14.703 67.373l-0.414-1.002s39.68 12.373 128-46.933c35.195 9.757 75.609 15.365 117.333 15.365s82.138-5.608 120.53-16.111l-3.196 0.745c89.6 59.307 128 46.933 128 46.933 9.025-19.5 14.29-42.321 14.29-66.371 0-19.66-3.518-38.498-9.958-55.92l0.362 1.117c30.882-31.834 49.92-75.31 49.92-123.233 0-0.026 0-0.052 0-0.078v0.004c0-176.64-110.080-215.467-213.333-226.987 19.972-19.407 32.364-46.521 32.364-76.53 0-3.099-0.132-6.166-0.391-9.198l0.027 0.395c0-61.44 0-110.933 0-125.867s8.533-26.88 32-22.187c186.343 61.127 318.767 232.963 319.999 435.906l0.001 0.147c-2.879 254.412-209.79 459.544-464.612 459.544-1.66 0-3.318-0.009-4.974-0.026l0.253 0.002z" />
<glyph unicode="&#xe976;" glyph-name="google" d="M746.667 362.667c-25.919-88.127-99.79-153.855-190.706-167.52l-1.294-0.16c-11.321-1.73-24.383-2.719-37.675-2.719-135.357 0-246.777 102.489-260.891 234.098l-0.1 1.154c-0.523 6.133-0.821 13.272-0.821 20.481 0 141.385 114.615 256 256 256 0.288 0 0.577 0 0.865-0.001h-0.044c34.905-0.051 68.186-6.942 98.594-19.405l-1.741 0.631c2.568-1.182 5.572-1.871 8.737-1.871 7.921 0 14.834 4.317 18.514 10.727l0.055 0.104 61.44 113.067c1.516 2.922 2.405 6.38 2.405 10.046 0 8.618-4.914 16.089-12.093 19.763l-0.125 0.058c-51.692 23.989-112.202 37.982-175.979 37.982-235.641 0-426.667-191.025-426.667-426.667 0-4.504 0.070-8.992 0.208-13.463l-0.016 0.654c8.994-223.038 185.87-401.99 407.204-414.244l1.116-0.049c5.641-0.267 12.254-0.419 18.902-0.419 227.985 0 414.205 178.813 426.067 403.843l0.044 1.056c0 8.533 0 57.6 0 85.333-0.234 11.687-9.647 21.099-21.311 21.333h-384.022c-11.782 0-21.333-9.551-21.333-21.333v0-128c0-11.782 9.551-21.333 21.333-21.333v0h213.333z" />
<glyph unicode="&#xe989;" glyph-name="log-in" d="M810.667 789.333h-85.333c-23.564 0-42.667-19.103-42.667-42.667s19.103-42.667 42.667-42.667v0h42.667v-512h-42.667c-23.564 0-42.667-19.103-42.667-42.667s19.103-42.667 42.667-42.667v0h85.333c23.564 0 42.667 19.103 42.667 42.667v0 597.333c0 23.564-19.103 42.667-42.667 42.667v0zM503.467 644.267c-7.867 10.41-20.223 17.067-34.133 17.067-23.564 0-42.667-19.103-42.667-42.667 0-9.653 3.206-18.558 8.611-25.707l-0.078 0.107 76.8-102.4h-341.333c-23.564 0-42.667-19.103-42.667-42.667s19.103-42.667 42.667-42.667v0h345.173l-73.387-104.107c-4.965-6.884-7.942-15.49-7.942-24.792 0-14.395 7.129-27.125 18.048-34.852l0.133-0.089c6.809-4.806 15.28-7.681 24.423-7.681 0.114 0 0.228 0 0.342 0.001h-0.017c14.208 0.068 26.766 7.070 34.473 17.793l0.087 0.127 120.32 170.667c5.134 6.96 8.217 15.707 8.217 25.173s-3.083 18.213-8.3 25.291l0.083-0.117z" />
<glyph unicode="&#xe98a;" glyph-name="log-out" d="M298.667 704c23.564 0 42.667 19.103 42.667 42.667s-19.103 42.667-42.667 42.667v0h-85.333c-23.564 0-42.667-19.103-42.667-42.667v0-597.333c0-23.564 19.103-42.667 42.667-42.667v0h85.333c23.564 0 42.667 19.103 42.667 42.667s-19.103 42.667-42.667 42.667v0h-42.667v512zM888.32 472.747l-120.32 170.667c-7.828 10.937-20.491 17.98-34.8 17.98-9.179 0-17.68-2.898-24.64-7.83l0.133 0.089c-11.053-7.817-18.182-20.547-18.182-34.942 0-9.301 2.976-17.907 8.028-24.918l-0.087 0.126 73.387-103.253h-345.173c-23.564 0-42.667-19.103-42.667-42.667s19.103-42.667 42.667-42.667v0h341.333l-76.8-102.4c-5.327-7.042-8.533-15.947-8.533-25.6 0-13.911 6.657-26.267 16.959-34.056l0.107-0.078c7.042-5.327 15.947-8.533 25.6-8.533v0c13.911 0 26.267 6.657 34.056 16.959l0.078 0.107 128 170.667c5.4 7.071 8.652 16.035 8.652 25.757 0 9.214-2.921 17.746-7.887 24.72l0.089-0.131z" />
<glyph unicode="&#xe98f;" glyph-name="menu1" d="M168.533 490.667h686.933c22.386 0 40.533-18.147 40.533-40.533v-4.267c0-22.386-18.147-40.533-40.533-40.533h-686.933c-22.386 0-40.533 18.147-40.533 40.533v4.267c0 22.386 18.147 40.533 40.533 40.533zM168.533 277.333h686.933c22.386 0 40.533-18.147 40.533-40.533v-4.267c0-22.386-18.147-40.533-40.533-40.533h-686.933c-22.386 0-40.533 18.147-40.533 40.533v4.267c0 22.386 18.147 40.533 40.533 40.533zM168.533 704h686.933c22.386 0 40.533-18.147 40.533-40.533v-4.267c0-22.386-18.147-40.533-40.533-40.533h-686.933c-22.386 0-40.533 18.147-40.533 40.533v4.267c0 22.386 18.147 40.533 40.533 40.533z" />
<glyph unicode="&#xe997;" glyph-name="minus" d="M810.667 405.333h-597.333c-23.564 0-42.667 19.103-42.667 42.667s19.103 42.667 42.667 42.667v0h597.333c23.564 0 42.667-19.103 42.667-42.667s-19.103-42.667-42.667-42.667v0z" />
<glyph unicode="&#xe99e;" glyph-name="navigation-2" d="M583.253 21.333h-2.56c-19.487 1.21-35.352 15.331-39.205 33.856l-0.048 0.277-65.707 322.987c-3.51 16.777-16.503 29.77-33.002 33.231l-0.278 0.049-322.987 65.707c-19.724 4.021-34.355 21.226-34.355 41.849 0 18.76 12.107 34.692 28.935 40.409l0.3 0.089 682.667 227.413c4.813 2.042 10.41 3.23 16.284 3.23 23.564 0 42.667-19.103 42.667-42.667 0-5.295-0.965-10.365-2.728-15.044l0.097 0.294-227.413-682.667c-5.854-17.042-21.743-29.071-40.443-29.071-0.782 0-1.56 0.021-2.332 0.063l0.108-0.005z" />
<glyph unicode="&#xe99f;" glyph-name="navigation1" d="M853.333 106.667c-0.136-0.002-0.297-0.003-0.459-0.003-8.616 0-16.597 2.717-23.134 7.34l0.126-0.084-294.4 194.56c-6.607 4.407-14.73 7.033-23.467 7.033s-16.859-2.626-23.623-7.131l0.156 0.098-294.4-194.56c-6.53-4.266-14.526-6.803-23.114-6.803-23.564 0-42.667 19.103-42.667 42.667 0 6.825 1.603 13.276 4.452 18.997l-0.112-0.248 341.333 682.667c7.227 13.89 21.512 23.212 37.973 23.212s30.746-9.323 37.861-22.976l0.112-0.236 341.333-682.667c2.89-5.6 4.585-12.223 4.585-19.241 0-12.7-5.549-24.104-14.354-31.92l-0.044-0.038c-7.467-6.609-17.34-10.651-28.157-10.667h-0.003z" />
<glyph unicode="&#xe9ac;" glyph-name="person1" d="M512 490.667c94.257 0 170.667 76.41 170.667 170.667s-76.41 170.667-170.667 170.667c-94.257 0-170.667-76.41-170.667-170.667v0c0-94.257 76.41-170.667 170.667-170.667v0zM768 64c23.564 0 42.667 19.103 42.667 42.667v0c0 164.949-133.718 298.667-298.667 298.667s-298.667-133.718-298.667-298.667v0c0-23.564 19.103-42.667 42.667-42.667v0z" />
<glyph unicode="&#xe9b3;" glyph-name="pin" d="M576 554.667c0-35.346-28.654-64-64-64s-64 28.654-64 64c0 35.346 28.654 64 64 64s64-28.654 64-64zM512 874.667c-0.005 0-0.011 0-0.017 0-187.313 0-339.386-150.88-341.315-337.737l-0.001-0.183c0-233.813 300.8-494.080 313.6-505.173 7.409-6.367 17.119-10.243 27.733-10.243s20.324 3.876 27.79 10.29l-0.057-0.048c14.933 11.093 313.6 271.36 313.6 505.173-1.93 187.040-154.003 337.92-341.316 337.92-0.006 0-0.012 0-0.018 0h0.001zM512 405.333c-82.475 0-149.333 66.859-149.333 149.333s66.859 149.333 149.333 149.333c82.475 0 149.333-66.859 149.333-149.333v0c0-82.475-66.859-149.333-149.333-149.333v0z" />
<glyph unicode="&#xe9b7;" glyph-name="plus" d="M810.667 490.667h-256v256c0 23.564-19.103 42.667-42.667 42.667s-42.667-19.103-42.667-42.667v0-256h-256c-23.564 0-42.667-19.103-42.667-42.667s19.103-42.667 42.667-42.667v0h256v-256c0-23.564 19.103-42.667 42.667-42.667s42.667 19.103 42.667 42.667v0 256h256c23.564 0 42.667 19.103 42.667 42.667s-19.103 42.667-42.667 42.667v0z" />
<glyph unicode="&#xe9b8;" glyph-name="power" d="M512 405.333c23.564 0 42.667 19.103 42.667 42.667v0 426.667c0 23.564-19.103 42.667-42.667 42.667s-42.667-19.103-42.667-42.667v0-426.667c0-23.564 19.103-42.667 42.667-42.667v0zM707.84 827.307c-5.7 3.007-12.457 4.772-19.627 4.772-23.608 0-42.746-19.138-42.746-42.746 0-16.438 9.279-30.709 22.885-37.861l0.234-0.112c110.592-57.982 184.747-171.98 184.747-303.297 0-188.513-152.82-341.333-341.333-341.333s-341.333 152.82-341.333 341.333c0 131.317 74.155 245.315 182.874 302.401l1.873 0.896c13.84 7.264 23.119 21.535 23.119 37.973 0 23.608-19.138 42.746-42.746 42.746-7.17 0-13.927-1.765-19.861-4.884l0.234 0.112c-138.18-72.496-230.827-214.962-230.827-379.066 0-235.641 191.025-426.667 426.667-426.667s426.667 191.025 426.667 426.667c0 164.104-92.646 306.57-228.488 377.946l-2.339 1.12z" />
<glyph unicode="&#xe9bc;" glyph-name="question-mark" d="M725.333 576c0 117.821-95.513 213.333-213.333 213.333s-213.333-95.513-213.333-213.333v0c0-23.564 19.103-42.667 42.667-42.667s42.667 19.103 42.667 42.667v0c0 70.692 57.308 128 128 128s128-57.308 128-128c0-70.692-57.308-128-128-128v0c-23.564 0-42.667-19.103-42.667-42.667v0-85.333c0-23.564 19.103-42.667 42.667-42.667s42.667 19.103 42.667 42.667v0 46.933c98.072 20.544 170.667 106.306 170.667 209.023 0 0.015 0 0.031 0 0.046v-0.002zM554.667 149.333c0-23.564-19.103-42.667-42.667-42.667s-42.667 19.103-42.667 42.667c0 23.564 19.103 42.667 42.667 42.667s42.667-19.103 42.667-42.667z" />
<glyph unicode="&#xe9c5;" glyph-name="save1" d="M426.667 234.667h170.667v-170.667h-170.667v170.667zM858.453 588.373l-206.080 206.080c-23.143 23.171-55.12 37.515-90.447 37.547h-135.26v-256h213.333c23.564 0 42.667-19.103 42.667-42.667s-19.103-42.667-42.667-42.667v0h-256c-23.564 0-42.667 19.103-42.667 42.667v0 298.667h-85.333c-70.692 0-128-57.308-128-128v0-512c0-70.692 57.308-128 128-128v0h85.333v170.667c0 47.128 38.205 85.333 85.333 85.333v0h170.667c47.128 0 85.333-38.205 85.333-85.333v0-170.667h85.333c70.692 0 128 57.308 128 128v0 305.92c-0.032 35.333-14.375 67.31-37.545 90.452l-0.001 0.001z" />
<glyph unicode="&#xe9c7;" glyph-name="search1" d="M883.627 136.96l-145.067 144.64c44.951 56.854 72.107 129.579 72.107 208.646 0 0.148 0 0.295 0 0.443v-0.023c0 188.513-152.82 341.333-341.333 341.333s-341.333-152.82-341.333-341.333c0-188.513 152.82-341.333 341.333-341.333v0c0.125 0 0.272 0 0.42 0 79.067 0 151.792 27.155 209.357 72.648l-0.71-0.541 144.64-145.067c7.733-7.795 18.45-12.621 30.293-12.621s22.56 4.826 30.291 12.618l0.003 0.003c7.795 7.733 12.621 18.45 12.621 30.293s-4.826 22.56-12.618 30.291l-0.003 0.003zM213.333 490.667c0 141.385 114.615 256 256 256s256-114.615 256-256c0-141.385-114.615-256-256-256v0c-141.385 0-256 114.615-256 256v0z" />
<glyph unicode="&#xe9c9;" glyph-name="settings" d="M576 448c0-35.346-28.654-64-64-64s-64 28.654-64 64c0 35.346 28.654 64 64 64s64-28.654 64-64zM933.973 519.68l-33.707 107.52c-12.105 40.393-48.944 69.324-92.54 69.324-10.852 0-21.285-1.793-31.020-5.098l0.679 0.2-14.507-4.693c-6.955-2.378-14.967-3.751-23.301-3.751-16.795 0-32.287 5.577-44.726 14.98l0.187-0.135-4.693 3.413c-17.982 13.861-29.453 35.407-29.453 59.632 0 0.486 0.005 0.97 0.014 1.454l-0.001-0.072v11.947c0.002 0.233 0.003 0.508 0.003 0.783 0 27.623-11.076 52.66-29.030 70.91l0.013-0.014c-17.424 17.595-41.563 28.512-68.253 28.587h-108.814c-54.116-0.722-97.708-44.759-97.708-98.978 0-0.153 0-0.306 0.001-0.459v0.024-10.24c-0.089-26.012-12.163-49.187-30.985-64.301l-0.162-0.126-5.547-4.267c-13.642-10.407-30.93-16.675-49.681-16.675-9.399 0-18.431 1.575-26.845 4.475l0.579-0.173c-8.899 3.182-19.164 5.020-29.86 5.020-15.274 0-29.671-3.75-42.322-10.38l0.502 0.24c-22.949-11.568-40.158-31.698-47.613-56.088l-0.173-0.659-34.987-110.933c-3.089-9.201-4.872-19.796-4.872-30.807 0-43.753 28.144-80.933 67.316-94.423l0.702-0.21h6.827c23.253-8.887 40.867-27.903 47.651-51.502l0.136-0.551 2.56-6.827c3.36-8.945 5.305-19.282 5.305-30.074 0-18.396-5.652-35.472-15.313-49.587l0.194 0.301c-12.253-16.532-19.614-37.331-19.614-59.85 0-33 15.808-62.308 40.264-80.765l0.256-0.185 88.32-66.987c15.623-11.469 35.235-18.354 56.454-18.354 0.403 0 0.806 0.002 1.207 0.007l-0.061-0.001c2.495-0.259 5.39-0.407 8.32-0.407s5.825 0.148 8.679 0.436l-0.359-0.029c26.514 5.26 48.659 20.841 62.491 42.288l0.229 0.378 9.813 14.080c13.687 19.451 35.796 32.18 60.911 32.851l0.103 0.002c0.547 0.014 1.192 0.023 1.838 0.023 25.823 0 48.585-13.109 61.993-33.036l0.169-0.267 5.12-7.253c17.406-25.643 46.426-42.269 79.328-42.269 21.939 0 42.151 7.392 58.282 19.821l-0.224-0.166 86.613 64.853c23.986 18.755 39.259 47.694 39.259 80.2 0 21.54-6.706 41.513-18.145 57.946l0.219-0.332-11.093 16.213c-8.586 13.090-13.695 29.131-13.695 46.365 0 8.567 1.262 16.838 3.611 24.639l-0.156-0.604c7.358 25.736 26.501 45.862 51.061 54.441l0.566 0.172 8.533 2.987c39.735 14.083 67.684 51.342 67.684 95.129 0 10.668-1.659 20.948-4.733 30.597l0.196-0.713zM512 298.667c-82.475 0-149.333 66.859-149.333 149.333s66.859 149.333 149.333 149.333c82.475 0 149.333-66.859 149.333-149.333v0c0-82.475-66.859-149.333-149.333-149.333v0z" />
<glyph unicode="&#xe9cd;" glyph-name="shield" d="M512 27.733c-0.397-0.007-0.866-0.010-1.336-0.010-15.17 0-29.415 3.958-41.759 10.899l0.429-0.222-12.8 7.253c-197.543 113.306-328.479 322.956-328.533 563.192v5.981c-0.002 0.227-0.003 0.495-0.003 0.764 0 31.42 16.981 58.874 42.267 73.685l0.403 0.218 298.667 168.107c12.239 7.187 26.957 11.432 42.667 11.432s30.427-4.245 43.069-11.651l-0.403 0.218 298.667-168.107c25.689-15.029 42.67-42.483 42.67-73.903 0-0.269-0.001-0.537-0.004-0.805v0.041-5.973c-0.239-240.403-131.504-450.093-326.22-561.53l-3.167-1.67-12.8-7.253c-11.912-6.713-26.151-10.668-41.314-10.668-0.175 0-0.351 0.001-0.526 0.002h0.027z" />
<glyph unicode="&#xe9e3;" glyph-name="trash-2" d="M896 704h-213.333v71.253c-2.093 55.375-47.489 99.472-103.184 99.472-1.225 0-2.444-0.021-3.659-0.064l0.176 0.005h-128c-1.038 0.037-2.258 0.059-3.483 0.059-55.695 0-101.091-44.097-103.178-99.282l-0.006-0.19v-71.253h-213.333c-23.564 0-42.667-19.103-42.667-42.667s19.103-42.667 42.667-42.667v0h42.667v-469.333c0-70.692 57.308-128 128-128v0h426.667c70.692 0 128 57.308 128 128v0 469.333h42.667c23.564 0 42.667 19.103 42.667 42.667s-19.103 42.667-42.667 42.667v0zM426.667 277.333c0-23.564-19.103-42.667-42.667-42.667s-42.667 19.103-42.667 42.667v0 170.667c0 23.564 19.103 42.667 42.667 42.667s42.667-19.103 42.667-42.667v0zM426.667 775.253c0 6.827 8.96 14.080 21.333 14.080h128c12.373 0 21.333-7.253 21.333-14.080v-71.253h-170.667zM682.667 277.333c0-23.564-19.103-42.667-42.667-42.667s-42.667 19.103-42.667 42.667v0 170.667c0 23.564 19.103 42.667 42.667 42.667s42.667-19.103 42.667-42.667v0z" />
</font>
</defs>
</svg>
