<?xml version="1.0" standalone="no"?>
<!DOCTYPE svg PUBLIC "-//W3C//DTD SVG 1.1//EN" "http://www.w3.org/Graphics/SVG/1.1/DTD/svg11.dtd" >
<svg xmlns="http://www.w3.org/2000/svg">
<metadata>Generated by IcoMoon</metadata>
<defs>
<font id="WeathericonFat" horiz-adv-x="1024">
<font-face units-per-em="1024" ascent="960" descent="-64" />
<missing-glyph horiz-adv-x="1024" />
<glyph unicode="&#x20;" horiz-adv-x="512" d="" />
<glyph unicode="&#xe900;" glyph-name="windy" horiz-adv-x="1008" d="M433.222 400.738l0.009-47.262-188.697-0.034c-13.288 0-23.984-10.613-23.984-23.614 0-12.897 10.525-23.444 23.661-23.612l448.958-0.002v-47.262h-456.862l-0.001 0.467c-35.441 4.054-63.019 33.996-63.019 70.408 0 39.184 31.936 70.875 71.241 70.875l188.693 0.034zM622.014 542.523c52.335 0 94.802-42.285 94.802-94.497s-42.467-94.497-94.802-94.497h-152.715v47.262h152.715c26.278 0 47.54 21.171 47.54 47.236s-21.262 47.236-47.54 47.236v47.262zM869.559 148.677c45.73 0 83.564 34.795 83.564 78.749s-37.834 78.749-83.564 78.749h-176.39v-47.262h176.39c20.471 0 36.303-14.56 36.303-31.488s-15.832-31.488-36.303-31.488v-47.262zM806.559 511.015c45.73 0 83.564-34.795 83.564-78.749s-37.834-78.749-83.564-78.749l-66.137 0.023 0.016 47.262 66.129-0.023c20.463 0 36.295 14.56 36.295 31.488s-15.832 31.488-36.303 31.488v47.262z" />
<glyph unicode="&#xe901;" glyph-name="cloudy-gusts" horiz-adv-x="1008" d="M606.26 526.769c52.335 0 94.802-42.285 94.802-94.497s-42.467-94.497-94.802-94.497h-165.434v47.262h165.434c26.278 0 47.54 21.171 47.54 47.236s-21.262 47.236-47.54 47.236v47.262zM869.559 148.677c45.73 0 83.564 34.795 83.564 78.749s-37.834 78.749-83.564 78.749h-176.39v-47.262h176.39c20.471 0 36.303-14.56 36.303-31.488s-15.832-31.488-36.303-31.488v-47.262zM790.806 495.262c45.73 0 83.564-34.795 83.564-78.749s-37.834-78.749-83.564-78.749l-66.137 0.023 0.016 47.262 66.129-0.023c20.463 0 36.295 14.56 36.295 31.488s-15.832 31.488-36.303 31.488v47.262zM393.846 384.985h-63.015v-47.262h63.015zM504.123 715.815c98.339 0 183.97-62.627 215.559-152.638l1.669-4.937 3.325 0.036c16.181 0 32.035-2.577 47.098-7.568l5.61-1.984-16.647-44.233c-11.413 4.295-23.566 6.523-36.062 6.523-3.827 0-7.62-0.209-11.364-0.622l-5.576-0.773-22-3.677-4.939 21.752c-18.576 81.803-91.646 140.859-176.674 140.859-72.44 0-136.931-42.906-165.689-107.765l-1.905-4.456-6.752-16.394-17.628 1.898c-4.235 0.456-8.514 0.686-12.825 0.686-65.255 0-118.154-52.899-118.154-118.154 0-63.975 50.845-116.075 114.33-118.093l3.824-0.061 275.429-0.052c52.335 0 94.802-42.285 94.802-94.497 0-51.026-40.559-92.57-91.249-94.432l-3.553-0.065v47.262c26.278 0 47.54 21.171 47.54 47.236 0 25.134-19.77 45.717-44.749 47.155l-2.796 0.080-282.078 0.052c-88.275 3.627-158.762 76.29-158.762 165.415 0 89.859 71.651 162.983 160.937 165.356l5.029 0.059c38.242 76.245 116.636 126.032 204.249 126.032z" />
<glyph unicode="&#xe902;" glyph-name="cloudy-windy" horiz-adv-x="1008" d="M869.559 148.677c45.73 0 83.564 34.795 83.564 78.749s-37.834 78.749-83.564 78.749h-176.39v-47.262h176.39c20.471 0 36.303-14.56 36.303-31.488s-15.832-31.488-36.303-31.488v-47.262zM606.26 526.769c52.335 0 94.802-42.285 94.802-94.497s-42.467-94.497-94.802-94.497h-165.434v47.262h165.434c26.278 0 47.54 21.171 47.54 47.236s-21.262 47.236-47.54 47.236v47.262zM790.806 495.262c45.73 0 83.564-34.795 83.564-78.749s-37.834-78.749-83.564-78.749l-66.137 0.023 0.016 47.262 66.129-0.023c20.463 0 36.295 14.56 36.295 31.488s-15.832 31.488-36.303 31.488v47.262zM393.846 384.985h-63.015v-47.262h63.015zM299.323 258.954l-4.479 0.059c-89.286 2.373-160.937 75.497-160.937 165.356s71.651 162.983 160.937 165.356l5.029 0.059c38.242 76.245 116.636 126.032 204.249 126.032 98.339 0 183.97-62.627 215.559-152.638l1.669-4.937 3.325 0.036c16.181 0 32.035-2.577 47.098-7.568l5.61-1.984-16.647-44.233c-11.413 4.295-23.566 6.523-36.062 6.523-3.827 0-7.62-0.209-11.364-0.622l-5.576-0.773-22-3.677-4.939 21.752c-18.576 81.803-91.646 140.859-176.674 140.859-72.44 0-136.931-42.906-165.689-107.765l-1.905-4.456-6.752-16.394-17.628 1.898c-4.235 0.456-8.514 0.686-12.825 0.686-65.255 0-118.154-52.899-118.154-118.154 0-63.975 50.845-116.075 114.33-118.093l3.824-0.061h346.585v-47.262h-346.585z" />
<glyph unicode="&#xe903;" glyph-name="cloudy" d="M520 688c114.654 0 209.882-83.17 228.646-192.469 3.741 0.311 7.529 0.469 11.354 0.469 75.111 0 136-60.889 136-136 0-72.423-56.609-131.623-127.992-135.768l-0.008-0.232h-496l-0.002 0.79c-80.852 8.028-143.998 76.245-143.998 159.21 0 88.366 71.634 160 160 160 5.718 0 11.365-0.3 16.928-0.885 34.429 84.963 117.753 144.885 215.072 144.885zM765.225 272.151c46.327 2.69 82.775 41.185 82.775 87.849 0 48.601-39.399 88-88 88-2.486 0-4.947-0.102-7.376-0.304l-43.843-3.647-7.444 43.36c-15.038 87.598-91.404 152.59-181.338 152.59-75.615 0-142.671-46.025-170.586-114.912l-13.57-33.489-35.936 3.779c-3.929 0.413-7.901 0.622-11.908 0.622-61.856 0-112-50.144-112-112 0-57.677 43.825-105.793 100.741-111.445l5.592-0.555 482.892 0.151z" />
<glyph unicode="&#xe904;" glyph-name="day-cloudy-gusts" d="M427.495 662.101c-24.797 58.833-82.544 97.899-147.495 97.899-88.366 0-160-71.634-160-160 0-52.214 25.218-100.245 66.841-130.095l27.974 39.006c-29.183 20.929-46.815 54.511-46.815 91.089 0 61.856 50.144 112 112 112 45.475 0 85.901-27.348 103.263-68.542l44.232 18.642zM256.056 880.028l-0.112-96 48-0.056 0.112 96zM455.422 817.284l-67.961-67.803 33.902-33.981 67.961 67.803zM7.972 584.056l96-0.112 0.056 48-96 0.112zM70.716 783.422l67.803-67.961 33.981 33.902-67.803 67.961zM615.733 520c53.153 0 96.283-42.946 96.283-95.974s-43.13-95.974-96.283-95.974h-168.019v48h168.019c26.689 0 48.283 21.502 48.283 47.974s-21.594 47.974-48.283 47.974v48zM883.146 136c46.444 0 84.87 35.338 84.87 79.98s-38.426 79.98-84.87 79.98h-179.146v-48h179.146c20.791 0 36.87-14.787 36.87-31.98s-16.079-31.98-36.87-31.98v-48zM803.162 488c46.444 0 84.87-35.338 84.87-79.98s-38.426-79.98-84.87-79.98l-67.17 0.023 0.017 48 67.162-0.023c20.782 0 36.862 14.787 36.862 31.98s-16.079 31.98-36.87 31.98v48zM400 376h-64v-48h64zM512 712c99.875 0 186.844-63.606 218.927-155.023l1.695-5.014 3.377 0.037c16.434 0 32.536-2.617 47.834-7.686l5.698-2.015-16.907-44.924c-11.591 4.362-23.934 6.625-36.625 6.625-3.886 0-7.739-0.212-11.542-0.632l-5.663-0.785-22.344-3.735-5.017 22.091c-18.866 83.082-93.078 143.060-179.434 143.060-73.572 0-139.070-43.576-168.278-109.449l-1.935-4.526-6.858-16.65-17.904 1.928c-4.301 0.463-8.647 0.697-13.026 0.697-66.274 0-120-53.726-120-120 0-64.975 51.64-117.888 116.116-119.938l3.884-0.062 279.733-0.052c53.153 0 96.283-42.946 96.283-95.974 0-51.823-41.192-94.017-92.675-95.908l-3.608-0.066v48c26.689 0 48.283 21.502 48.283 47.974 0 25.527-20.079 46.432-45.448 47.892l-2.84 0.082-286.486 0.052c-89.655 3.683-161.243 77.482-161.243 168 0 91.263 72.77 165.529 163.451 167.94l5.108 0.059c38.839 77.437 118.459 128.001 207.441 128.001z" />
<glyph unicode="&#xe905;" glyph-name="day-cloudy-windy" d="M427.495 662.101c-24.797 58.833-82.544 97.899-147.495 97.899-88.366 0-160-71.634-160-160 0-52.214 25.218-100.245 66.841-130.095l27.974 39.006c-29.183 20.929-46.815 54.511-46.815 91.089 0 61.856 50.144 112 112 112 45.475 0 85.901-27.348 103.263-68.542l44.232 18.642zM256.056 880.028l-0.112-96 48-0.056 0.112 96zM455.422 817.284l-67.961-67.803 33.902-33.981 67.961 67.803zM7.972 584.056l96-0.112 0.056 48-96 0.112zM70.716 783.422l67.803-67.961 33.981 33.902-67.803 67.961zM883.146 136c46.444 0 84.87 35.338 84.87 79.98s-38.426 79.98-84.87 79.98h-179.146v-48h179.146c20.791 0 36.87-14.787 36.87-31.98s-16.079-31.98-36.87-31.98v-48zM615.733 520c53.153 0 96.283-42.946 96.283-95.974s-43.13-95.974-96.283-95.974h-168.019v48h168.019c26.689 0 48.283 21.502 48.283 47.974s-21.594 47.974-48.283 47.974v48zM803.162 488c46.444 0 84.87-35.338 84.87-79.98s-38.426-79.98-84.87-79.98l-67.17 0.023 0.017 48 67.162-0.023c20.782 0 36.862 14.787 36.862 31.98s-16.079 31.98-36.87 31.98v48zM400 376h-64v-48h64zM304 248l-4.549 0.060c-90.681 2.41-163.451 76.677-163.451 167.94s72.77 165.529 163.451 167.94l5.108 0.059c38.839 77.437 118.459 128.001 207.441 128.001 99.875 0 186.844-63.606 218.927-155.023l1.695-5.014 3.377 0.037c16.434 0 32.536-2.617 47.834-7.686l5.698-2.015-16.907-44.924c-11.591 4.362-23.934 6.625-36.625 6.625-3.886 0-7.739-0.212-11.542-0.632l-5.663-0.785-22.344-3.735-5.017 22.091c-18.866 83.082-93.078 143.060-179.434 143.060-73.572 0-139.070-43.576-168.278-109.449l-1.935-4.526-6.858-16.65-17.904 1.928c-4.301 0.463-8.647 0.697-13.026 0.697-66.274 0-120-53.726-120-120 0-64.975 51.64-117.888 116.116-119.938l3.884-0.062h352v-48h-352z" />
<glyph unicode="&#xe906;" glyph-name="day-cloudy" d="M443.495 614.101c-24.797 58.833-82.544 97.899-147.495 97.899-88.366 0-160-71.634-160-160 0-52.214 25.218-100.245 66.841-130.095l27.974 39.006c-29.183 20.929-46.815 54.511-46.815 91.089 0 61.856 50.144 112 112 112 45.475 0 85.901-27.348 103.263-68.542l44.232 18.642zM272.056 832.028l-0.112-96 48-0.056 0.112 96zM471.422 769.284l-67.961-67.803 33.902-33.981 67.961 67.803zM23.972 536.056l96-0.112 0.056 48-96 0.112zM86.716 735.422l67.803-67.961 33.981 33.902-67.803 67.961zM536 640c114.654 0 209.882-83.17 228.646-192.469 3.741 0.311 7.529 0.469 11.354 0.469 75.111 0 136-60.889 136-136 0-72.423-56.609-131.623-127.992-135.768l-0.008-0.232h-496l-0.002 0.79c-80.852 8.028-143.998 76.245-143.998 159.21 0 88.366 71.634 160 160 160 5.718 0 11.365-0.3 16.928-0.885 34.429 84.963 117.753 144.885 215.072 144.885zM781.225 224.151c46.327 2.69 82.775 41.185 82.775 87.849 0 48.601-39.399 88-88 88-2.486 0-4.947-0.102-7.376-0.304l-43.843-3.647-7.444 43.36c-15.038 87.598-91.404 152.59-181.338 152.59-75.615 0-142.671-46.025-170.586-114.912l-13.57-33.489-35.936 3.779c-3.929 0.413-7.901 0.622-11.908 0.622-61.856 0-112-50.144-112-112 0-57.677 43.825-105.793 100.741-111.445l5.592-0.555 482.892 0.151z" />
<glyph unicode="&#xe907;" glyph-name="day-fog" d="M427.495 662.101c-24.797 58.833-82.544 97.899-147.495 97.899-88.366 0-160-71.634-160-160 0-52.214 25.218-100.245 66.841-130.095l27.974 39.006c-29.183 20.929-46.815 54.511-46.815 91.089 0 61.856 50.144 112 112 112 45.475 0 85.901-27.348 103.263-68.542l44.232 18.642zM256.056 880.028l-0.112-96 48-0.056 0.112 96zM455.422 817.284l-67.961-67.803 33.902-33.981 67.961 67.803zM7.972 584.056l96-0.112 0.056 48-96 0.112zM70.716 783.422l67.803-67.961 33.981 33.902-67.803 67.961zM512 712c-88.982 0-168.601-50.564-207.441-128.001l-0.559 0.001c-84.562 0-155.64-62.818-166.561-145.932l47.591-6.253c7.792 59.302 58.577 104.185 118.97 104.185 4.379 0 8.725-0.234 13.026-0.697l17.904-1.928 6.858 16.65c28.17 68.395 94.969 113.975 170.213 113.975 86.356 0 160.568-59.978 179.434-143.060l5.017-22.091 22.344 3.735c5.621 0.94 11.375 1.417 17.205 1.417 47.663 0 88.895-32.345 100.681-77.81l46.464 12.045c-16.866 65.065-74.881 111.702-142.615 113.699l-6.219 0.057-1.687-0.028c-30.62 94.097-118.931 160.037-220.623 160.037zM96 408h832v48h-832zM64 312h896v48h-896zM128 216h800v48h-800zM224 120h576v48h-576z" />
<glyph unicode="&#xe908;" glyph-name="day-hail" d="M427.495 662.101c-24.797 58.833-82.544 97.899-147.495 97.899-88.366 0-160-71.634-160-160 0-52.214 25.218-100.245 66.841-130.095l27.974 39.006c-29.183 20.929-46.815 54.511-46.815 91.089 0 61.856 50.144 112 112 112 45.475 0 85.901-27.348 103.263-68.542l44.232 18.642zM256.056 880.028l-0.112-96 48-0.056 0.112 96zM455.422 817.284l-67.961-67.803 33.902-33.981 67.961 67.803zM7.972 584.056l96-0.112 0.056 48-96 0.112zM70.716 783.422l67.803-67.961 33.981 33.902-67.803 67.961zM512 712c-88.982 0-168.601-50.564-207.441-128.001l-0.559 0.001c-92.784 0-168-75.216-168-168s75.216-168 168-168v48c-66.274 0-120 53.726-120 120s53.726 120 120 120c4.379 0 8.725-0.234 13.026-0.697l17.904-1.928 6.858 16.65c28.17 68.395 94.969 113.975 170.213 113.975 86.356 0 160.568-59.978 179.434-143.060l5.017-22.091 22.344 3.735c5.621 0.94 11.375 1.417 17.205 1.417 57.438 0 104-46.562 104-104 0-56.229-44.701-102.236-100.747-103.95l-3.62-0.052 0.733-47.997 3.987 0.064c82.32 2.516 147.647 69.751 147.647 151.936 0 82.5-65.726 149.649-147.672 151.94l-6.017 0.051-1.687-0.028c-30.62 94.097-118.931 160.037-220.623 160.037zM376 376v-176h48v176zM488 312v-191.671h48v191.671zM600 360v-191.671h48v191.671zM432 128c0-17.673-14.327-32-32-32s-32 14.327-32 32c0 17.673 14.327 32 32 32s32-14.327 32-32zM544 48c0-17.673-14.327-32-32-32s-32 14.327-32 32c0 17.673 14.327 32 32 32s32-14.327 32-32zM656 96c0-17.673-14.327-32-32-32s-32 14.327-32 32c0 17.673 14.327 32 32 32s32-14.327 32-32z" />
<glyph unicode="&#xe909;" glyph-name="day-lightning" d="M512 712c-88.982 0-168.601-50.564-207.441-128.001l-0.559 0.001c-92.784 0-168-75.216-168-168s75.216-168 168-168h15.819v48h-15.819c-66.274 0-120 53.726-120 120s53.726 120 120 120c4.379 0 8.725-0.234 13.026-0.697l17.904-1.928 6.858 16.65c28.17 68.395 94.969 113.975 170.213 113.975 86.356 0 160.568-59.978 179.434-143.060l5.017-22.091 22.344 3.735c5.621 0.94 11.375 1.417 17.205 1.417 57.438 0 104-46.562 104-104 0-56.229-44.701-102.236-100.747-103.95l-3.62-0.052-29.464 0.003v-48h29.831l4.353 0.064c82.32 2.516 147.647 69.751 147.647 151.936 0 82.5-65.726 149.649-147.672 151.94l-6.017 0.051-1.687-0.028c-30.62 94.097-118.931 160.037-220.623 160.037zM444.338 386.237l56.050-80.073h-63.31l117.844-171.996 39.597 27.13-66.368 96.866h64.428l-108.917 155.599zM427.495 662.101c-24.797 58.833-82.544 97.899-147.495 97.899-88.366 0-160-71.634-160-160 0-52.214 25.218-100.245 66.841-130.095l27.974 39.006c-29.183 20.929-46.815 54.511-46.815 91.089 0 61.856 50.144 112 112 112 45.475 0 85.901-27.348 103.263-68.542l44.232 18.642zM256.056 880.028l-0.112-96 48-0.056 0.112 96zM455.422 817.284l-67.961-67.803 33.902-33.981 67.961 67.803zM7.972 584.056l96-0.112 0.056 48-96 0.112zM70.716 783.422l67.803-67.961 33.981 33.902-67.803 67.961z" />
<glyph unicode="&#xe90a;" glyph-name="day-rain-wind" d="M512 712c-88.982 0-168.601-50.564-207.441-128.001l-0.559 0.001c-92.784 0-168-75.216-168-168s75.216-168 168-168h15.819v48h-15.819c-66.274 0-120 53.726-120 120s53.726 120 120 120c4.379 0 8.725-0.234 13.026-0.697l17.904-1.928 6.858 16.65c28.17 68.395 94.969 113.975 170.213 113.975 86.356 0 160.568-59.978 179.434-143.060l5.017-22.091 22.344 3.735c5.621 0.94 11.375 1.417 17.205 1.417 57.438 0 104-46.562 104-104 0-56.229-44.701-102.236-100.747-103.95l-3.62-0.052-29.464 0.003v-48h29.831l4.353 0.064c82.32 2.516 147.647 69.751 147.647 151.936 0 82.5-65.726 149.649-147.672 151.94l-6.017 0.051-1.687-0.028c-30.62 94.097-118.931 160.037-220.623 160.037zM427.495 662.101c-24.797 58.833-82.544 97.899-147.495 97.899-88.366 0-160-71.634-160-160 0-52.214 25.218-100.245 66.841-130.095l27.974 39.006c-29.183 20.929-46.815 54.511-46.815 91.089 0 61.856 50.144 112 112 112 45.475 0 85.901-27.348 103.263-68.542l44.232 18.642zM256.056 880.028l-0.112-96 48-0.056 0.112 96zM455.422 817.284l-67.961-67.803 33.902-33.981 67.961 67.803zM7.972 584.056l96-0.112 0.056 48-96 0.112zM70.716 783.422l67.803-67.961 33.981 33.902-67.803 67.961zM339.654 305.6l144-192 38.4 28.8-144 192zM451.654 305.6l144-192 38.4 28.8-144 192zM563.654 305.6l144-192 38.4 28.8-144 192z" />
<glyph unicode="&#xe90b;" glyph-name="day-rain" d="M512 712c-88.982 0-168.601-50.564-207.441-128.001l-0.559 0.001c-92.784 0-168-75.216-168-168s75.216-168 168-168h15.819v48h-15.819c-66.274 0-120 53.726-120 120s53.726 120 120 120c4.379 0 8.725-0.234 13.026-0.697l17.904-1.928 6.858 16.65c28.17 68.395 94.969 113.975 170.213 113.975 86.356 0 160.568-59.978 179.434-143.060l5.017-22.091 22.344 3.735c5.621 0.94 11.375 1.417 17.205 1.417 57.438 0 104-46.562 104-104 0-56.229-44.701-102.236-100.747-103.95l-3.62-0.052-29.464 0.003v-48h29.831l4.353 0.064c82.32 2.516 147.647 69.751 147.647 151.936 0 82.5-65.726 149.649-147.672 151.94l-6.017 0.051-1.687-0.028c-30.62 94.097-118.931 160.037-220.623 160.037zM427.495 662.101c-24.797 58.833-82.544 97.899-147.495 97.899-88.366 0-160-71.634-160-160 0-52.214 25.218-100.245 66.841-130.095l27.974 39.006c-29.183 20.929-46.815 54.511-46.815 91.089 0 61.856 50.144 112 112 112 45.475 0 85.901-27.348 103.263-68.542l44.232 18.642zM256.056 880.028l-0.112-96 48-0.056 0.112 96zM455.422 817.284l-67.961-67.803 33.902-33.981 67.961 67.803zM7.972 584.056l96-0.112 0.056 48-96 0.112zM70.716 783.422l67.803-67.961 33.981 33.902-67.803 67.961zM488 304v-288h48v288zM376 368v-288h48v288zM600 368v-288h48v288z" />
<glyph unicode="&#xe90c;" glyph-name="day-showers" d="M512 712c-88.982 0-168.601-50.564-207.441-128.001l-0.559 0.001c-92.784 0-168-75.216-168-168s75.216-168 168-168h15.819v48h-15.819c-66.274 0-120 53.726-120 120s53.726 120 120 120c4.379 0 8.725-0.234 13.026-0.697l17.904-1.928 6.858 16.65c28.17 68.395 94.969 113.975 170.213 113.975 86.356 0 160.568-59.978 179.434-143.060l5.017-22.091 22.344 3.735c5.621 0.94 11.375 1.417 17.205 1.417 57.438 0 104-46.562 104-104 0-56.229-44.701-102.236-100.747-103.95l-3.62-0.052-29.464 0.003v-48h29.831l4.353 0.064c82.32 2.516 147.647 69.751 147.647 151.936 0 82.5-65.726 149.649-147.672 151.94l-6.017 0.051-1.687-0.028c-30.62 94.097-118.931 160.037-220.623 160.037zM427.495 662.101c-24.797 58.833-82.544 97.899-147.495 97.899-88.366 0-160-71.634-160-160 0-52.214 25.218-100.245 66.841-130.095l27.974 39.006c-29.183 20.929-46.815 54.511-46.815 91.089 0 61.856 50.144 112 112 112 45.475 0 85.901-27.348 103.263-68.542l44.232 18.642zM256.056 880.028l-0.112-96 48-0.056 0.112 96zM455.422 817.284l-67.961-67.803 33.902-33.981 67.961 67.803zM7.972 584.056l96-0.112 0.056 48-96 0.112zM70.716 783.422l67.803-67.961 33.981 33.902-67.803 67.961zM376 368v-128h48v128zM600 368v-128h48v128zM488 304v-128h48v128zM376 192v-128h48v128zM600 192v-128h48v128zM488 128v-128h48v128z" />
<glyph unicode="&#xe90d;" glyph-name="day-sleet" d="M427.495 662.101c-24.797 58.833-82.544 97.899-147.495 97.899-88.366 0-160-71.634-160-160 0-52.214 25.218-100.245 66.841-130.095l27.974 39.006c-29.183 20.929-46.815 54.511-46.815 91.089 0 61.856 50.144 112 112 112 45.475 0 85.901-27.348 103.263-68.542l44.232 18.642zM256.056 880.028l-0.112-96 48-0.056 0.112 96zM455.422 817.284l-67.961-67.803 33.902-33.981 67.961 67.803zM7.972 584.056l96-0.112 0.056 48-96 0.112zM70.716 783.422l67.803-67.961 33.981 33.902-67.803 67.961zM512 712c-88.982 0-168.601-50.564-207.441-128.001l-0.559 0.001c-92.784 0-168-75.216-168-168s75.216-168 168-168v48c-66.274 0-120 53.726-120 120s53.726 120 120 120c4.379 0 8.725-0.234 13.026-0.697l17.904-1.928 6.858 16.65c28.17 68.395 94.969 113.975 170.213 113.975 86.356 0 160.568-59.978 179.434-143.060l5.017-22.091 22.344 3.735c5.621 0.94 11.375 1.417 17.205 1.417 57.438 0 104-46.562 104-104 0-56.229-44.701-102.236-100.747-103.95l-3.62-0.052 0.733-47.997 3.987 0.064c82.32 2.516 147.647 69.751 147.647 151.936 0 82.5-65.726 149.649-147.672 151.94l-6.017 0.051-1.687-0.028c-30.62 94.097-118.931 160.037-220.623 160.037zM432 128c0-17.673-14.327-32-32-32s-32 14.327-32 32c0 17.673 14.327 32 32 32s32-14.327 32-32zM544 48c0-17.673-14.327-32-32-32s-32 14.327-32 32c0 17.673 14.327 32 32 32s32-14.327 32-32zM656 112c0-17.673-14.327-32-32-32s-32 14.327-32 32c0 17.673 14.327 32 32 32s32-14.327 32-32zM376 272v-72h48v72zM488 192v-71.671h48v71.671zM600 240v-71.671h48v71.671z" />
<glyph unicode="&#xe90e;" glyph-name="day-snow" d="M427.495 662.101c-24.797 58.833-82.544 97.899-147.495 97.899-88.366 0-160-71.634-160-160 0-52.214 25.218-100.245 66.841-130.095l27.974 39.006c-29.183 20.929-46.815 54.511-46.815 91.089 0 61.856 50.144 112 112 112 45.475 0 85.901-27.348 103.263-68.542l44.232 18.642zM256.056 880.028l-0.112-96 48-0.056 0.112 96zM455.422 817.284l-67.961-67.803 33.902-33.981 67.961 67.803zM7.972 584.056l96-0.112 0.056 48-96 0.112zM70.716 783.422l67.803-67.961 33.981 33.902-67.803 67.961zM512 712c-88.982 0-168.601-50.564-207.441-128.001l-0.559 0.001c-92.784 0-168-75.216-168-168s75.216-168 168-168v48c-66.274 0-120 53.726-120 120s53.726 120 120 120c4.379 0 8.725-0.234 13.026-0.697l17.904-1.928 6.858 16.65c28.17 68.395 94.969 113.975 170.213 113.975 86.356 0 160.568-59.978 179.434-143.060l5.017-22.091 22.344 3.735c5.621 0.94 11.375 1.417 17.205 1.417 57.438 0 104-46.562 104-104 0-56.229-44.701-102.236-100.747-103.95l-3.62-0.052 0.733-47.997 3.987 0.064c82.32 2.516 147.647 69.751 147.647 151.936 0 82.5-65.726 149.649-147.672 151.94l-6.017 0.051-1.687-0.028c-30.62 94.097-118.931 160.037-220.623 160.037zM416 334.848c0-17.673-14.327-32-32-32s-32 14.327-32 32c0 17.673 14.327 32 32 32s32-14.327 32-32zM480 240.080c0-17.673-14.327-32-32-32s-32 14.327-32 32c0 17.673 14.327 32 32 32s32-14.327 32-32zM608 240.080c0-17.673-14.327-32-32-32s-32 14.327-32 32c0 17.673 14.327 32 32 32s32-14.327 32-32zM544 334.848c0-17.673-14.327-32-32-32s-32 14.327-32 32c0 17.673 14.327 32 32 32s32-14.327 32-32zM672 334.848c0-17.673-14.327-32-32-32s-32 14.327-32 32c0 17.673 14.327 32 32 32s32-14.327 32-32zM416 143.728c0-17.673-14.327-32-32-32s-32 14.327-32 32c0 17.673 14.327 32 32 32s32-14.327 32-32zM544 143.728c0-17.673-14.327-32-32-32s-32 14.327-32 32c0 17.673 14.327 32 32 32s32-14.327 32-32zM672 143.728c0-17.673-14.327-32-32-32s-32 14.327-32 32c0 17.673 14.327 32 32 32s32-14.327 32-32z" />
<glyph unicode="&#xe90f;" glyph-name="day-sunny" d="M512 656c114.875 0 208-93.125 208-208s-93.125-208-208-208c-114.875 0-208 93.125-208 208s93.125 208 208 208zM512 608c-88.366 0-160-71.634-160-160s71.634-160 160-160c88.366 0 160 71.634 160 160s-71.634 160-160 160zM488 864.017l-0.112-160 48-0.034 0.112 160zM789.181 759.099l-113.216-113.058 33.917-33.965 113.216 113.058zM927.961 471.944l-160 0.112-0.034-48 160-0.112zM823.043 170.763l-113.058 113.216-33.965-33.917 113.058-113.216zM535.888 31.983l0.112 160-48 0.034-0.112-160zM234.707 136.901l113.216 113.058-33.917 33.965-113.216-113.058zM95.927 424.056l160-0.112 0.034 48-160 0.112zM200.845 725.237l113.058-113.216 33.965 33.917-113.058 113.216z" />
<glyph unicode="&#xe910;" glyph-name="day-thunderstorm" d="M427.495 662.101c-24.797 58.833-82.544 97.899-147.495 97.899-88.366 0-160-71.634-160-160 0-52.214 25.218-100.245 66.841-130.095l27.974 39.006c-29.183 20.929-46.815 54.511-46.815 91.089 0 61.856 50.144 112 112 112 45.475 0 85.901-27.348 103.263-68.542l44.232 18.642zM256.056 880.028l-0.112-96 48-0.056 0.112 96zM455.422 817.284l-67.961-67.803 33.902-33.981 67.961 67.803zM7.972 584.056l96-0.112 0.056 48-96 0.112zM70.716 783.422l67.803-67.961 33.981 33.902-67.803 67.961zM476.338 306.237l56.050-80.073h-63.31l117.844-171.996 39.597 27.13-66.368 96.866h64.428l-108.917 155.599zM603.568 306.125l102.682-144.914 39.165 27.751-102.682 144.914zM316.418 306.125l102.682-144.914 39.165 27.751-102.682 144.914zM512 712c-88.982 0-168.601-50.564-207.441-128.001l-0.559 0.001c-92.784 0-168-75.216-168-168s75.216-168 168-168v48c-66.274 0-120 53.726-120 120s53.726 120 120 120c4.379 0 8.725-0.234 13.026-0.697l17.904-1.928 6.858 16.65c28.17 68.395 94.969 113.975 170.213 113.975 86.356 0 160.568-59.978 179.434-143.060l5.017-22.091 22.344 3.735c5.621 0.94 11.375 1.417 17.205 1.417 57.438 0 104-46.562 104-104 0-56.229-44.701-102.236-100.747-103.95l-3.62-0.052 0.733-47.997 3.987 0.064c82.32 2.516 147.647 69.751 147.647 151.936 0 82.5-65.726 149.649-147.672 151.94l-6.017 0.051-1.687-0.028c-30.62 94.097-118.931 160.037-220.623 160.037z" />
<glyph unicode="&#xe911;" glyph-name="day-windy" d="M280 752c83.947 0 152-68.053 152-152s-68.053-152-152-152c-83.947 0-152 68.053-152 152s68.053 152 152 152zM280 704c-57.438 0-104-46.562-104-104s46.562-104 104-104c57.438 0 104 46.562 104 104s-46.562 104-104 104zM256.056 880.028l-0.112-96 48-0.056 0.112 96zM583.733 104c53.153 0 96.283 42.946 96.283 95.974s-43.13 95.974-96.283 95.974l-286.481 0.052-0.009-48 286.486-0.052c26.693 0 48.288-21.502 48.288-47.974s-21.594-47.974-48.283-47.974v-48zM631.733 520c53.153 0 96.283-42.946 96.283-95.974s-43.13-95.974-96.283-95.974h-168.019v48h168.019c26.689 0 48.283 21.502 48.283 47.974s-21.594 47.974-48.283 47.974v48zM883.146 136c46.444 0 84.87 35.338 84.87 79.98s-38.426 79.98-84.87 79.98h-179.146v-48h179.146c20.791 0 36.87-14.787 36.87-31.98s-16.079-31.98-36.87-31.98v-48zM819.162 488c46.444 0 84.87-35.338 84.87-79.98s-38.426-79.98-84.87-79.98l-67.17 0.023 0.017 48 67.162-0.023c20.782 0 36.862 14.787 36.862 31.98s-16.079 31.98-36.87 31.98v48zM461.079 814.941l-67.961-67.803 33.902-33.981 67.961 67.803zM560.028 623.944l-96 0.112-0.056-48 96-0.112zM494.941 418.921l-67.803 67.961-33.981-33.902 67.803-67.961zM303.944 319.972l0.112 96-48 0.056-0.112-96zM98.921 385.059l67.961 67.803-33.902 33.981-67.961-67.803zM-0.028 576.056l96-0.112 0.056 48-96 0.112zM65.059 781.079l67.803-67.961 33.981 33.902-67.803 67.961z" />
<glyph unicode="&#xe912;" glyph-name="dust" d="M584 192c13.255 0 24-10.745 24-24s-10.745-24-24-24c-13.255 0-24 10.745-24 24s10.745 24 24 24zM200 336c-13.255 0-24-10.745-24-24s10.745-24 24-24c13.255 0 24 10.745 24 24s-10.745 24-24 24zM568 624c-13.255 0-24-10.745-24-24s10.745-24 24-24c13.255 0 24 10.745 24 24s-10.745 24-24 24zM680 480c13.255 0 24-10.745 24-24s-10.745-24-24-24c-13.255 0-24 10.745-24 24s10.745 24 24 24zM312 480c13.255 0 24-10.745 24-24s-10.745-24-24-24c-13.255 0-24 10.745-24 24s10.745 24 24 24zM776 768c13.255 0 24-10.745 24-24s-10.745-24-24-24c-13.255 0-24 10.745-24 24s10.745 24 24 24zM479.979 720l224-0.192 0.041 48-224 0.192zM240 720h191.808v48h-191.808zM384 432h224v48h-224zM320 144h192v48h-192zM656 144h192v48h-192zM288 288h192v48h-192zM544 288h192v48h-192zM304 576h191.808v48h-191.808zM640 576h191.808v48h-191.808z" />
<glyph unicode="&#xe913;" glyph-name="fog" horiz-adv-x="1008" d="M504.123 715.815c-87.613 0-166.007-49.786-204.249-126.032l-0.551 0.001c-83.261 0-153.246-61.851-163.998-143.687l46.859-6.157c7.672 58.39 57.676 102.582 117.14 102.582 4.312 0 8.59-0.23 12.825-0.686l17.628-1.898 6.752 16.394c27.737 67.343 93.508 112.221 167.594 112.221 85.027 0 158.098-59.056 176.674-140.859l4.939-21.752 22 3.677c5.535 0.925 11.2 1.395 16.94 1.395 46.929 0 87.527-31.847 99.132-76.613l45.749 11.859c-16.607 64.064-73.729 109.984-140.421 111.95l-6.124 0.057-1.662-0.027c-30.149 92.649-117.102 157.575-217.229 157.575zM94.523 416.492h819.2v47.262h-819.2zM63.015 321.969h882.215v47.262h-882.215zM126.031 227.446h787.692v47.262h-787.692zM220.554 132.923h567.138v47.262h-567.138z" />
<glyph unicode="&#xe914;" glyph-name="hail" d="M512 712c-88.982 0-168.601-50.564-207.441-128.001l-0.559 0.001c-92.784 0-168-75.216-168-168s75.216-168 168-168v48c-66.274 0-120 53.726-120 120s53.726 120 120 120c4.379 0 8.725-0.234 13.026-0.697l17.904-1.928 6.858 16.65c28.17 68.395 94.969 113.975 170.213 113.975 86.356 0 160.568-59.978 179.434-143.060l5.017-22.091 22.344 3.735c5.621 0.94 11.375 1.417 17.205 1.417 57.438 0 104-46.562 104-104 0-56.229-44.701-102.236-100.747-103.95l-3.62-0.052 0.733-47.997 3.987 0.064c82.32 2.516 147.647 69.751 147.647 151.936 0 82.5-65.726 149.649-147.672 151.94l-6.017 0.051-1.687-0.028c-30.62 94.097-118.931 160.037-220.623 160.037zM376 376v-176h48v176zM488 312v-191.671h48v191.671zM600 360v-191.671h48v191.671zM432 128c0-17.673-14.327-32-32-32s-32 14.327-32 32c0 17.673 14.327 32 32 32s32-14.327 32-32zM544 48c0-17.673-14.327-32-32-32s-32 14.327-32 32c0 17.673 14.327 32 32 32s32-14.327 32-32zM656 96c0-17.673-14.327-32-32-32s-32 14.327-32 32c0 17.673 14.327 32 32 32s32-14.327 32-32z" />
<glyph unicode="&#xe915;" glyph-name="hurricane" d="M574.062 784l16.107-45.217c-23.576-8.398-45.859-20.61-72.323-38.537-44.355-30.047-76.176-69.77-95.485-119.681 25.585 17.317 56.431 27.435 89.639 27.435 88.366 0 160-71.634 160-160 0-10.075-0.931-19.932-2.712-29.49-6.835-116.527-52.882-204.746-138.044-262.436-27.076-18.342-50.85-31.662-76.185-41.435l-6.952-2.579-16.107 45.217c23.576 8.398 45.859 20.61 72.323 38.537 43.85 29.705 75.45 68.867 94.821 117.981-25.072-16.317-55.001-25.795-87.144-25.795-86.868 0-157.567 69.227-159.939 155.522l-0.061 4.686c0.403 131.145 46.755 229.341 138.925 291.779 29.537 20.009 55.145 34.042 83.137 44.013zM512 560c-61.856 0-112-50.144-112-112s50.144-112 112-112c61.856 0 112 50.144 112 112s-50.144 112-112 112z" />
<glyph unicode="&#xe916;" glyph-name="lightning" horiz-adv-x="1008" d="M504.123 715.815c-87.613 0-166.007-49.786-204.249-126.032l-0.551 0.001c-91.356 0-165.415-74.059-165.415-165.415s74.059-165.415 165.415-165.415h15.575v47.262h-15.575c-65.255 0-118.154 52.899-118.154 118.154s52.899 118.154 118.154 118.154c4.312 0 8.59-0.23 12.825-0.686l17.628-1.898 6.752 16.394c27.737 67.343 93.508 112.221 167.594 112.221 85.027 0 158.098-59.056 176.674-140.859l4.939-21.752 22 3.677c5.535 0.925 11.2 1.395 16.94 1.395 56.554 0 102.4-45.846 102.4-102.4 0-55.363-44.013-100.663-99.197-102.351l-3.564-0.052-29.011 0.003v-47.262h29.372l4.287 0.063c81.054 2.477 145.375 68.677 145.375 149.599 0 81.231-64.715 147.346-145.4 149.602l-5.925 0.050-1.662-0.027c-30.149 92.649-117.102 157.575-217.229 157.575zM437.502 395.064l55.188-78.841h-62.336l116.031-169.35 38.988 26.713-65.347 95.375h63.436l-107.241 153.205z" />
<glyph unicode="&#xe917;" glyph-name="night-alt-cloudy-gusts" d="M154.102 578.353c76.024 0 137.654 61.626 137.654 137.647 0 19.844-4.23 39.026-12.094 56.493 56.402-12.688 100.888-58.557 110.447-117.074l47.372 7.738c-15.067 92.238-95.057 160.843-189.491 160.843-6.302 0-12.571-0.304-18.793-0.91l-53.024-5.158 38.996-36.297c18.126-16.872 28.586-40.387 28.586-65.636 0-49.51-40.139-89.647-89.654-89.647-21.776 0-42.289 7.759-58.448 21.664l-40.919 35.213 1.369-58.165c2.713-72.835 45.992-136.917 110.792-167.145l20.292 43.5c-34.172 15.941-60.364 44.425-73.614 78.819l-1.726 4.726c13.467-4.337 27.691-6.612 42.254-6.612zM512 712c99.875 0 186.844-63.606 218.927-155.023l1.695-5.014 3.377 0.037c16.434 0 32.536-2.617 47.834-7.686l5.698-2.015-16.907-44.924c-11.591 4.362-23.934 6.625-36.625 6.625-3.886 0-7.739-0.212-11.542-0.632l-5.663-0.785-22.344-3.735-5.017 22.091c-18.866 83.082-93.078 143.060-179.434 143.060-73.572 0-139.070-43.576-168.278-109.449l-1.935-4.526-6.858-16.65-17.904 1.928c-4.301 0.463-8.647 0.697-13.026 0.697-66.274 0-120-53.726-120-120 0-64.975 51.64-117.888 116.116-119.938l3.884-0.062 279.733-0.052c53.153 0 96.283-42.946 96.283-95.974 0-51.823-41.192-94.017-92.675-95.908l-3.608-0.066v48c26.689 0 48.283 21.502 48.283 47.974 0 25.527-20.079 46.432-45.448 47.892l-2.84 0.082-286.486 0.052c-89.655 3.683-161.243 77.482-161.243 168 0 91.263 72.77 165.529 163.451 167.94l5.108 0.059c38.839 77.437 118.459 128.001 207.441 128.001zM615.733 520c53.153 0 96.283-42.946 96.283-95.974s-43.13-95.974-96.283-95.974h-168.019v48h168.019c26.689 0 48.283 21.502 48.283 47.974s-21.594 47.974-48.283 47.974v48zM883.146 136c46.444 0 84.87 35.338 84.87 79.98s-38.426 79.98-84.87 79.98h-179.146v-48h179.146c20.791 0 36.87-14.787 36.87-31.98s-16.079-31.98-36.87-31.98v-48zM803.162 488c46.444 0 84.87-35.338 84.87-79.98s-38.426-79.98-84.87-79.98l-67.17 0.023 0.017 48 67.162-0.023c20.782 0 36.862 14.787 36.862 31.98s-16.079 31.98-36.87 31.98v48zM400 376h-64v-48h64z" />
<glyph unicode="&#xe918;" glyph-name="night-alt-cloudy-windy" d="M154.102 578.353c76.024 0 137.654 61.626 137.654 137.647 0 19.844-4.23 39.026-12.094 56.493 56.402-12.688 100.888-58.557 110.447-117.074l47.372 7.738c-15.067 92.238-95.057 160.843-189.491 160.843-6.302 0-12.571-0.304-18.793-0.91l-53.024-5.158 38.996-36.297c18.126-16.872 28.586-40.387 28.586-65.636 0-49.51-40.139-89.647-89.654-89.647-21.776 0-42.289 7.759-58.448 21.664l-40.919 35.213 1.369-58.165c2.713-72.835 45.992-136.917 110.792-167.145l20.292 43.5c-34.172 15.941-60.364 44.425-73.614 78.819l-1.726 4.726c13.467-4.337 27.691-6.612 42.254-6.612zM883.146 136c46.444 0 84.87 35.338 84.87 79.98s-38.426 79.98-84.87 79.98h-179.146v-48h179.146c20.791 0 36.87-14.787 36.87-31.98s-16.079-31.98-36.87-31.98v-48zM304 248l-4.549 0.060c-90.681 2.41-163.451 76.677-163.451 167.94s72.77 165.529 163.451 167.94l5.108 0.059c38.839 77.437 118.459 128.001 207.441 128.001 99.875 0 186.844-63.606 218.927-155.023l1.695-5.014 3.377 0.037c16.434 0 32.536-2.617 47.834-7.686l5.698-2.015-16.907-44.924c-11.591 4.362-23.934 6.625-36.625 6.625-3.886 0-7.739-0.212-11.542-0.632l-5.663-0.785-22.344-3.735-5.017 22.091c-18.866 83.082-93.078 143.060-179.434 143.060-73.572 0-139.070-43.576-168.278-109.449l-1.935-4.526-6.858-16.65-17.904 1.928c-4.301 0.463-8.647 0.697-13.026 0.697-66.274 0-120-53.726-120-120 0-64.975 51.64-117.888 116.116-119.938l3.884-0.062h352v-48h-352zM615.733 520c53.153 0 96.283-42.946 96.283-95.974s-43.13-95.974-96.283-95.974h-168.019v48h168.019c26.689 0 48.283 21.502 48.283 47.974s-21.594 47.974-48.283 47.974v48zM803.162 488c46.444 0 84.87-35.338 84.87-79.98s-38.426-79.98-84.87-79.98l-67.17 0.023 0.017 48 67.162-0.023c20.782 0 36.862 14.787 36.862 31.98s-16.079 31.98-36.87 31.98v48zM400 376h-64v-48h64z" />
<glyph unicode="&#xe919;" glyph-name="night-alt-cloudy" d="M536 640c114.654 0 209.882-83.17 228.646-192.469 3.741 0.311 7.529 0.469 11.354 0.469 75.111 0 136-60.889 136-136 0-72.423-56.609-131.623-127.992-135.768l-0.008-0.232h-496l-0.002 0.79c-80.852 8.028-143.998 76.245-143.998 159.21 0 88.366 71.634 160 160 160 5.718 0 11.365-0.3 16.928-0.885 34.429 84.963 117.753 144.885 215.072 144.885zM781.225 224.151c46.327 2.69 82.775 41.185 82.775 87.849 0 48.601-39.399 88-88 88-2.486 0-4.947-0.102-7.376-0.304l-43.843-3.647-7.444 43.36c-15.038 87.598-91.404 152.59-181.338 152.59-75.615 0-142.671-46.025-170.586-114.912l-13.57-33.489-35.936 3.779c-3.929 0.413-7.901 0.622-11.908 0.622-61.856 0-112-50.144-112-112 0-57.677 43.825-105.793 100.741-111.445l5.592-0.555 482.892 0.151zM170.102 530.353c76.024 0 137.654 61.626 137.654 137.647 0 19.844-4.23 39.026-12.094 56.493 56.402-12.688 100.888-58.557 110.447-117.074 0-4.934 0-12.782 0-23.543 0 0 15.791 10.427 47.372 31.281-15.067 92.238-95.057 160.843-189.491 160.843-6.302 0-12.571-0.304-18.793-0.91l-53.024-5.158 38.996-36.297c18.126-16.872 28.586-40.387 28.586-65.636 0-49.51-40.139-89.647-89.654-89.647-21.776 0-42.289 7.759-58.448 21.664l-40.919 35.213 1.369-58.165c2.713-72.835 45.992-136.917 110.792-167.145l20.292 43.5c-34.172 15.941-60.364 44.425-73.614 78.819l-1.726 4.726c13.467-4.337 27.691-6.612 42.254-6.612z" />
<glyph unicode="&#xe91a;" glyph-name="night-alt-fog" d="M154.102 578.353c76.024 0 137.654 61.626 137.654 137.647 0 19.844-4.23 39.026-12.094 56.493 56.402-12.688 100.888-58.557 110.447-117.074l47.372 7.738c-15.067 92.238-95.057 160.843-189.491 160.843-6.302 0-12.571-0.304-18.793-0.91l-53.024-5.158 38.996-36.297c18.126-16.872 28.586-40.387 28.586-65.636 0-49.51-40.139-89.647-89.654-89.647-21.776 0-42.289 7.759-58.448 21.664l-40.919 35.213 1.369-58.165c2.713-72.835 45.992-136.917 110.792-167.145l20.292 43.5c-34.172 15.941-60.364 44.425-73.614 78.819l-1.726 4.726c13.467-4.337 27.691-6.612 42.254-6.612zM512 712c-88.982 0-168.601-50.564-207.441-128.001l-0.559 0.001c-84.562 0-155.64-62.818-166.561-145.932l47.591-6.253c7.792 59.302 58.577 104.185 118.97 104.185 4.379 0 8.725-0.234 13.026-0.697l17.904-1.928 6.858 16.65c28.17 68.395 94.969 113.975 170.213 113.975 86.356 0 160.568-59.978 179.434-143.060l5.017-22.091 22.344 3.735c5.621 0.94 11.375 1.417 17.205 1.417 47.663 0 88.895-32.345 100.681-77.81l46.464 12.045c-16.866 65.065-74.881 111.702-142.615 113.699l-6.219 0.057-1.687-0.028c-30.62 94.097-118.931 160.037-220.623 160.037zM96 408h832v48h-832zM64 312h896v48h-896zM128 216h800v48h-800zM224 120h576v48h-576z" />
<glyph unicode="&#xe91b;" glyph-name="night-alt-hail" d="M154.102 578.353c76.024 0 137.654 61.626 137.654 137.647 0 19.844-4.23 39.026-12.094 56.493 56.402-12.688 100.888-58.557 110.447-117.074l47.372 7.738c-15.067 92.238-95.057 160.843-189.491 160.843-6.302 0-12.571-0.304-18.793-0.91l-53.024-5.158 38.996-36.297c18.126-16.872 28.586-40.387 28.586-65.636 0-49.51-40.139-89.647-89.654-89.647-21.776 0-42.289 7.759-58.448 21.664l-40.919 35.213 1.369-58.165c2.713-72.835 45.992-136.917 110.792-167.145l20.292 43.5c-34.172 15.941-60.364 44.425-73.614 78.819l-1.726 4.726c13.467-4.337 27.691-6.612 42.254-6.612zM512 712c-88.982 0-168.601-50.564-207.441-128.001l-0.559 0.001c-92.784 0-168-75.216-168-168s75.216-168 168-168v48c-66.274 0-120 53.726-120 120s53.726 120 120 120c4.379 0 8.725-0.234 13.026-0.697l17.904-1.928 6.858 16.65c28.17 68.395 94.969 113.975 170.213 113.975 86.356 0 160.568-59.978 179.434-143.060l5.017-22.091 22.344 3.735c5.621 0.94 11.375 1.417 17.205 1.417 57.438 0 104-46.562 104-104 0-56.229-44.701-102.236-100.747-103.95l-3.62-0.052 0.733-47.997 3.987 0.064c82.32 2.516 147.647 69.751 147.647 151.936 0 82.5-65.726 149.649-147.672 151.94l-6.017 0.051-1.687-0.028c-30.62 94.097-118.931 160.037-220.623 160.037zM376 376v-176h48v176zM488 312v-191.671h48v191.671zM600 360v-191.671h48v191.671zM432 128c0-17.673-14.327-32-32-32s-32 14.327-32 32c0 17.673 14.327 32 32 32s32-14.327 32-32zM544 48c0-17.673-14.327-32-32-32s-32 14.327-32 32c0 17.673 14.327 32 32 32s32-14.327 32-32zM656 96c0-17.673-14.327-32-32-32s-32 14.327-32 32c0 17.673 14.327 32 32 32s32-14.327 32-32z" />
<glyph unicode="&#xe91c;" glyph-name="night-alt-lightning" d="M512 712c-88.982 0-168.601-50.564-207.441-128.001l-0.559 0.001c-92.784 0-168-75.216-168-168s75.216-168 168-168h15.819v48h-15.819c-66.274 0-120 53.726-120 120s53.726 120 120 120c4.379 0 8.725-0.234 13.026-0.697l17.904-1.928 6.858 16.65c28.17 68.395 94.969 113.975 170.213 113.975 86.356 0 160.568-59.978 179.434-143.060l5.017-22.091 22.344 3.735c5.621 0.94 11.375 1.417 17.205 1.417 57.438 0 104-46.562 104-104 0-56.229-44.701-102.236-100.747-103.95l-3.62-0.052-29.464 0.003v-48h29.831l4.353 0.064c82.32 2.516 147.647 69.751 147.647 151.936 0 82.5-65.726 149.649-147.672 151.94l-6.017 0.051-1.687-0.028c-30.62 94.097-118.931 160.037-220.623 160.037zM444.338 386.237l56.050-80.073h-63.31l117.844-171.996 39.597 27.13-66.368 96.866h64.428l-108.917 155.599zM154.102 578.353c76.024 0 137.654 61.626 137.654 137.647 0 19.844-4.23 39.026-12.094 56.493 56.402-12.688 100.888-58.557 110.447-117.074l47.372 7.738c-15.067 92.238-95.057 160.843-189.491 160.843-6.302 0-12.571-0.304-18.793-0.91l-53.024-5.158 38.996-36.297c18.126-16.872 28.586-40.387 28.586-65.636 0-49.51-40.139-89.647-89.654-89.647-21.776 0-42.289 7.759-58.448 21.664l-40.919 35.213 1.369-58.165c2.713-72.835 45.992-136.917 110.792-167.145l20.292 43.5c-34.172 15.941-60.364 44.425-73.614 78.819l-1.726 4.726c13.467-4.337 27.691-6.612 42.254-6.612z" />
<glyph unicode="&#xe91d;" glyph-name="night-alt-rain-wind" d="M512 712c-88.982 0-168.601-50.564-207.441-128.001l-0.559 0.001c-92.784 0-168-75.216-168-168s75.216-168 168-168h15.819v48h-15.819c-66.274 0-120 53.726-120 120s53.726 120 120 120c4.379 0 8.725-0.234 13.026-0.697l17.904-1.928 6.858 16.65c28.17 68.395 94.969 113.975 170.213 113.975 86.356 0 160.568-59.978 179.434-143.060l5.017-22.091 22.344 3.735c5.621 0.94 11.375 1.417 17.205 1.417 57.438 0 104-46.562 104-104 0-56.229-44.701-102.236-100.747-103.95l-3.62-0.052-29.464 0.003v-48h29.831l4.353 0.064c82.32 2.516 147.647 69.751 147.647 151.936 0 82.5-65.726 149.649-147.672 151.94l-6.017 0.051-1.687-0.028c-30.62 94.097-118.931 160.037-220.623 160.037zM154.102 578.353c76.024 0 137.654 61.626 137.654 137.647 0 19.844-4.23 39.026-12.094 56.493 56.402-12.688 100.888-58.557 110.447-117.074l47.372 7.738c-15.067 92.238-95.057 160.843-189.491 160.843-6.302 0-12.571-0.304-18.793-0.91l-53.024-5.158 38.996-36.297c18.126-16.872 28.586-40.387 28.586-65.636 0-49.51-40.139-89.647-89.654-89.647-21.776 0-42.289 7.759-58.448 21.664l-40.919 35.213 1.369-58.165c2.713-72.835 45.992-136.917 110.792-167.145l20.292 43.5c-34.172 15.941-60.364 44.425-73.614 78.819l-1.726 4.726c13.467-4.337 27.691-6.612 42.254-6.612zM339.654 305.6l144-192 38.4 28.8-144 192zM451.654 305.6l144-192 38.4 28.8-144 192zM563.654 305.6l144-192 38.4 28.8-144 192z" />
<glyph unicode="&#xe91e;" glyph-name="night-alt-rain" d="M512 712c-88.982 0-168.601-50.564-207.441-128.001l-0.559 0.001c-92.784 0-168-75.216-168-168s75.216-168 168-168h15.819v48h-15.819c-66.274 0-120 53.726-120 120s53.726 120 120 120c4.379 0 8.725-0.234 13.026-0.697l17.904-1.928 6.858 16.65c28.17 68.395 94.969 113.975 170.213 113.975 86.356 0 160.568-59.978 179.434-143.060l5.017-22.091 22.344 3.735c5.621 0.94 11.375 1.417 17.205 1.417 57.438 0 104-46.562 104-104 0-56.229-44.701-102.236-100.747-103.95l-3.62-0.052-29.464 0.003v-48h29.831l4.353 0.064c82.32 2.516 147.647 69.751 147.647 151.936 0 82.5-65.726 149.649-147.672 151.94l-6.017 0.051-1.687-0.028c-30.62 94.097-118.931 160.037-220.623 160.037zM154.102 578.353c76.024 0 137.654 61.626 137.654 137.647 0 19.844-4.23 39.026-12.094 56.493 56.402-12.688 100.888-58.557 110.447-117.074l47.372 7.738c-15.067 92.238-95.057 160.843-189.491 160.843-6.302 0-12.571-0.304-18.793-0.91l-53.024-5.158 38.996-36.297c18.126-16.872 28.586-40.387 28.586-65.636 0-49.51-40.139-89.647-89.654-89.647-21.776 0-42.289 7.759-58.448 21.664l-40.919 35.213 1.369-58.165c2.713-72.835 45.992-136.917 110.792-167.145l20.292 43.5c-34.172 15.941-60.364 44.425-73.614 78.819l-1.726 4.726c13.467-4.337 27.691-6.612 42.254-6.612zM488 304v-288h48v288zM376 368v-288h48v288zM600 368v-288h48v288z" />
<glyph unicode="&#xe91f;" glyph-name="night-alt-showers" d="M512 712c-88.982 0-168.601-50.564-207.441-128.001l-0.559 0.001c-92.784 0-168-75.216-168-168s75.216-168 168-168h15.819v48h-15.819c-66.274 0-120 53.726-120 120s53.726 120 120 120c4.379 0 8.725-0.234 13.026-0.697l17.904-1.928 6.858 16.65c28.17 68.395 94.969 113.975 170.213 113.975 86.356 0 160.568-59.978 179.434-143.060l5.017-22.091 22.344 3.735c5.621 0.94 11.375 1.417 17.205 1.417 57.438 0 104-46.562 104-104 0-56.229-44.701-102.236-100.747-103.95l-3.62-0.052-29.464 0.003v-48h29.831l4.353 0.064c82.32 2.516 147.647 69.751 147.647 151.936 0 82.5-65.726 149.649-147.672 151.94l-6.017 0.051-1.687-0.028c-30.62 94.097-118.931 160.037-220.623 160.037zM154.102 578.353c76.024 0 137.654 61.626 137.654 137.647 0 19.844-4.23 39.026-12.094 56.493 56.402-12.688 100.888-58.557 110.447-117.074l47.372 7.738c-15.067 92.238-95.057 160.843-189.491 160.843-6.302 0-12.571-0.304-18.793-0.91l-53.024-5.158 38.996-36.297c18.126-16.872 28.586-40.387 28.586-65.636 0-49.51-40.139-89.647-89.654-89.647-21.776 0-42.289 7.759-58.448 21.664l-40.919 35.213 1.369-58.165c2.713-72.835 45.992-136.917 110.792-167.145l20.292 43.5c-34.172 15.941-60.364 44.425-73.614 78.819l-1.726 4.726c13.467-4.337 27.691-6.612 42.254-6.612zM376 368v-128h48v128zM600 368v-128h48v128zM488 304v-128h48v128zM376 192v-128h48v128zM600 192v-128h48v128zM488 128v-128h48v128z" />
<glyph unicode="&#xe920;" glyph-name="night-alt-sleet" d="M154.102 578.353c76.024 0 137.654 61.626 137.654 137.647 0 19.844-4.23 39.026-12.094 56.493 56.402-12.688 100.888-58.557 110.447-117.074l47.372 7.738c-15.067 92.238-95.057 160.843-189.491 160.843-6.302 0-12.571-0.304-18.793-0.91l-53.024-5.158 38.996-36.297c18.126-16.872 28.586-40.387 28.586-65.636 0-49.51-40.139-89.647-89.654-89.647-21.776 0-42.289 7.759-58.448 21.664l-40.919 35.213 1.369-58.165c2.713-72.835 45.992-136.917 110.792-167.145l20.292 43.5c-34.172 15.941-60.364 44.425-73.614 78.819l-1.726 4.726c13.467-4.337 27.691-6.612 42.254-6.612zM512 712c-88.982 0-168.601-50.564-207.441-128.001l-0.559 0.001c-92.784 0-168-75.216-168-168s75.216-168 168-168v48c-66.274 0-120 53.726-120 120s53.726 120 120 120c4.379 0 8.725-0.234 13.026-0.697l17.904-1.928 6.858 16.65c28.17 68.395 94.969 113.975 170.213 113.975 86.356 0 160.568-59.978 179.434-143.060l5.017-22.091 22.344 3.735c5.621 0.94 11.375 1.417 17.205 1.417 57.438 0 104-46.562 104-104 0-56.229-44.701-102.236-100.747-103.95l-3.62-0.052 0.733-47.997 3.987 0.064c82.32 2.516 147.647 69.751 147.647 151.936 0 82.5-65.726 149.649-147.672 151.94l-6.017 0.051-1.687-0.028c-30.62 94.097-118.931 160.037-220.623 160.037zM432 128c0-17.673-14.327-32-32-32s-32 14.327-32 32c0 17.673 14.327 32 32 32s32-14.327 32-32zM544 48c0-17.673-14.327-32-32-32s-32 14.327-32 32c0 17.673 14.327 32 32 32s32-14.327 32-32zM656 112c0-17.673-14.327-32-32-32s-32 14.327-32 32c0 17.673 14.327 32 32 32s32-14.327 32-32zM376 272v-72h48v72zM488 192v-71.671h48v71.671zM600 240v-71.671h48v71.671z" />
<glyph unicode="&#xe921;" glyph-name="night-alt-snow" d="M154.102 578.353c76.024 0 137.654 61.626 137.654 137.647 0 19.844-4.23 39.026-12.094 56.493 56.402-12.688 100.888-58.557 110.447-117.074l47.372 7.738c-15.067 92.238-95.057 160.843-189.491 160.843-6.302 0-12.571-0.304-18.793-0.91l-53.024-5.158 38.996-36.297c18.126-16.872 28.586-40.387 28.586-65.636 0-49.51-40.139-89.647-89.654-89.647-21.776 0-42.289 7.759-58.448 21.664l-40.919 35.213 1.369-58.165c2.713-72.835 45.992-136.917 110.792-167.145l20.292 43.5c-34.172 15.941-60.364 44.425-73.614 78.819l-1.726 4.726c13.467-4.337 27.691-6.612 42.254-6.612zM512 712c-88.982 0-168.601-50.564-207.441-128.001l-0.559 0.001c-92.784 0-168-75.216-168-168s75.216-168 168-168v48c-66.274 0-120 53.726-120 120s53.726 120 120 120c4.379 0 8.725-0.234 13.026-0.697l17.904-1.928 6.858 16.65c28.17 68.395 94.969 113.975 170.213 113.975 86.356 0 160.568-59.978 179.434-143.060l5.017-22.091 22.344 3.735c5.621 0.94 11.375 1.417 17.205 1.417 57.438 0 104-46.562 104-104 0-56.229-44.701-102.236-100.747-103.95l-3.62-0.052 0.733-47.997 3.987 0.064c82.32 2.516 147.647 69.751 147.647 151.936 0 82.5-65.726 149.649-147.672 151.94l-6.017 0.051-1.687-0.028c-30.62 94.097-118.931 160.037-220.623 160.037zM416 334.848c0-17.673-14.327-32-32-32s-32 14.327-32 32c0 17.673 14.327 32 32 32s32-14.327 32-32zM480 240.080c0-17.673-14.327-32-32-32s-32 14.327-32 32c0 17.673 14.327 32 32 32s32-14.327 32-32zM608 240.080c0-17.673-14.327-32-32-32s-32 14.327-32 32c0 17.673 14.327 32 32 32s32-14.327 32-32zM544 334.848c0-17.673-14.327-32-32-32s-32 14.327-32 32c0 17.673 14.327 32 32 32s32-14.327 32-32zM672 334.848c0-17.673-14.327-32-32-32s-32 14.327-32 32c0 17.673 14.327 32 32 32s32-14.327 32-32zM416 143.728c0-17.673-14.327-32-32-32s-32 14.327-32 32c0 17.673 14.327 32 32 32s32-14.327 32-32zM544 143.728c0-17.673-14.327-32-32-32s-32 14.327-32 32c0 17.673 14.327 32 32 32s32-14.327 32-32zM672 143.728c0-17.673-14.327-32-32-32s-32 14.327-32 32c0 17.673 14.327 32 32 32s32-14.327 32-32z" />
<glyph unicode="&#xe922;" glyph-name="night-alt-thunderstorm" d="M154.102 578.353c76.024 0 137.654 61.626 137.654 137.647 0 19.844-4.23 39.026-12.094 56.493 56.402-12.688 100.888-58.557 110.447-117.074l47.372 7.738c-15.067 92.238-95.057 160.843-189.491 160.843-6.302 0-12.571-0.304-18.793-0.91l-53.024-5.158 38.996-36.297c18.126-16.872 28.586-40.387 28.586-65.636 0-49.51-40.139-89.647-89.654-89.647-21.776 0-42.289 7.759-58.448 21.664l-40.919 35.213 1.369-58.165c2.713-72.835 45.992-136.917 110.792-167.145l20.292 43.5c-34.172 15.941-60.364 44.425-73.614 78.819l-1.726 4.726c13.467-4.337 27.691-6.612 42.254-6.612zM476.338 306.237l56.050-80.073h-63.31l117.844-171.996 39.597 27.13-66.368 96.866h64.428l-108.917 155.599zM603.568 306.125l102.682-144.914 39.165 27.751-102.682 144.914zM316.418 306.125l102.682-144.914 39.165 27.751-102.682 144.914zM512 712c-88.982 0-168.601-50.564-207.441-128.001l-0.559 0.001c-92.784 0-168-75.216-168-168s75.216-168 168-168v48c-66.274 0-120 53.726-120 120s53.726 120 120 120c4.379 0 8.725-0.234 13.026-0.697l17.904-1.928 6.858 16.65c28.17 68.395 94.969 113.975 170.213 113.975 86.356 0 160.568-59.978 179.434-143.060l5.017-22.091 22.344 3.735c5.621 0.94 11.375 1.417 17.205 1.417 57.438 0 104-46.562 104-104 0-56.229-44.701-102.236-100.747-103.95l-3.62-0.052 0.733-47.997 3.987 0.064c82.32 2.516 147.647 69.751 147.647 151.936 0 82.5-65.726 149.649-147.672 151.94l-6.017 0.051-1.687-0.028c-30.62 94.097-118.931 160.037-220.623 160.037z" />
<glyph unicode="&#xe923;" glyph-name="night-alt-windy" d="M247.989 816c101.626 0 184.011-82.38 184.011-184s-82.384-184-184.011-184c-99.29 0-180.213 78.636-183.881 177.023l-0.108 4.596c21.79-18.752 50.151-30.089 81.16-30.089 68.747 0 124.478 55.727 124.478 124.471 0 35.984-15.271 68.402-39.686 91.127 5.936 0.577 11.952 0.873 18.037 0.873zM316.534 743.565c0.731-6.448 1.103-12.978 1.103-19.565 0-95.254-77.222-172.471-172.478-172.471-2.32 0-4.633 0.046-6.938 0.138 24.784-33.785 64.786-55.667 109.767-55.667 75.117 0 136.011 60.89 136.011 136 0 48.839-25.746 91.666-64.407 115.649l-3.909 2.335 0.85-6.419zM583.733 104c53.153 0 96.283 42.946 96.283 95.974s-43.13 95.974-96.283 95.974l-286.481 0.052-0.009-48 286.486-0.052c26.693 0 48.288-21.502 48.288-47.974s-21.594-47.974-48.283-47.974v-48zM631.733 520c53.153 0 96.283-42.946 96.283-95.974s-43.13-95.974-96.283-95.974h-168.019v48h168.019c26.689 0 48.283 21.502 48.283 47.974s-21.594 47.974-48.283 47.974v48zM819.162 488c46.444 0 84.87-35.338 84.87-79.98s-38.426-79.98-84.87-79.98l-67.17 0.023 0.017 48 67.162-0.023c20.782 0 36.862 14.787 36.862 31.98s-16.079 31.98-36.87 31.98v48zM883.146 136c46.444 0 84.87 35.338 84.87 79.98s-38.426 79.98-84.87 79.98h-179.146v-48h179.146c20.791 0 36.87-14.787 36.87-31.98s-16.079-31.98-36.87-31.98v-48zM416 376h-64v-48h64z" />
<glyph unicode="&#xe924;" glyph-name="night-clear" d="M512 720c32.807 0 64.257-5.808 93.379-16.452l2.646-0.983c102.836-38.811 175.975-138.146 175.975-254.565s-73.139-215.754-175.975-254.565l-2.646-0.983c-29.122-10.644-60.572-16.452-93.379-16.452-146.768 0-266.386 116.244-271.808 261.686l-0.16 6.794c32.21-27.72 74.132-44.48 119.968-44.48 101.62 0 184 82.38 184 184 0 53.194-22.573 101.116-58.662 134.71 8.774 0.854 17.667 1.29 26.662 1.29zM580.855 655.199c7.297-22.663 11.145-46.631 11.145-71.199 0-128.13-103.87-232-232-232-18.164 0-36.016 2.101-53.271 6.157 34.666-79.097 113.701-134.157 205.271-134.157 26.605 0 52.506 4.619 76.665 13.449l2.411 0.895c86.488 32.641 144.923 115.656 144.923 209.657s-58.435 177.016-144.688 209.569l-2.411 0.896-5.148 1.81-5.19 1.683 2.292-6.759z" />
<glyph unicode="&#xe925;" glyph-name="rain-wind" horiz-adv-x="1008" d="M504.123 715.815c-87.613 0-166.007-49.786-204.249-126.032l-0.551 0.001c-91.356 0-165.415-74.059-165.415-165.415s74.059-165.415 165.415-165.415h15.575v47.262h-15.575c-65.255 0-118.154 52.899-118.154 118.154s52.899 118.154 118.154 118.154c4.312 0 8.59-0.23 12.825-0.686l17.628-1.898 6.752 16.394c27.737 67.343 93.508 112.221 167.594 112.221 85.027 0 158.098-59.056 176.674-140.859l4.939-21.752 22 3.677c5.535 0.925 11.2 1.395 16.94 1.395 56.554 0 102.4-45.846 102.4-102.4 0-55.363-44.013-100.663-99.197-102.351l-3.564-0.052-29.011 0.003v-47.262h29.372l4.287 0.063c81.054 2.477 145.375 68.677 145.375 149.599 0 81.231-64.715 147.346-145.4 149.602l-5.925 0.050-1.662-0.027c-30.149 92.649-117.102 157.575-217.229 157.575zM334.428 315.668l141.785-189.046 37.809 28.357-141.785 189.046zM444.705 315.668l141.785-189.046 37.809 28.357-141.785 189.046zM554.982 315.668l141.785-189.046 37.809 28.357-141.785 189.046z" />
<glyph unicode="&#xe926;" glyph-name="rain" d="M512 712c-88.982 0-168.601-50.564-207.441-128.001l-0.559 0.001c-92.784 0-168-75.216-168-168s75.216-168 168-168h15.819v48h-15.819c-66.274 0-120 53.726-120 120s53.726 120 120 120c4.379 0 8.725-0.234 13.026-0.697l17.904-1.928 6.858 16.65c28.17 68.395 94.969 113.975 170.213 113.975 86.356 0 160.568-59.978 179.434-143.060l5.017-22.091 22.344 3.735c5.621 0.94 11.375 1.417 17.205 1.417 57.438 0 104-46.562 104-104 0-56.229-44.701-102.236-100.747-103.95l-3.62-0.052-29.464 0.003v-48h29.831l4.353 0.064c82.32 2.516 147.647 69.751 147.647 151.936 0 82.5-65.726 149.649-147.672 151.94l-6.017 0.051-1.687-0.028c-30.62 94.097-118.931 160.037-220.623 160.037zM488 304v-288h48v288zM376 368v-288h48v288zM600 368v-288h48v288z" />
<glyph unicode="&#xe927;" glyph-name="showers" d="M512 712c-88.982 0-168.601-50.564-207.441-128.001l-0.559 0.001c-92.784 0-168-75.216-168-168s75.216-168 168-168h15.819v48h-15.819c-66.274 0-120 53.726-120 120s53.726 120 120 120c4.379 0 8.725-0.234 13.026-0.697l17.904-1.928 6.858 16.65c28.17 68.395 94.969 113.975 170.213 113.975 86.356 0 160.568-59.978 179.434-143.060l5.017-22.091 22.344 3.735c5.621 0.94 11.375 1.417 17.205 1.417 57.438 0 104-46.562 104-104 0-56.229-44.701-102.236-100.747-103.95l-3.62-0.052-29.464 0.003v-48h29.831l4.353 0.064c82.32 2.516 147.647 69.751 147.647 151.936 0 82.5-65.726 149.649-147.672 151.94l-6.017 0.051-1.687-0.028c-30.62 94.097-118.931 160.037-220.623 160.037zM376 368v-128h48v128zM600 368v-128h48v128zM488 304v-128h48v128zM376 192v-128h48v128zM600 192v-128h48v128zM488 128v-128h48v128z" />
<glyph unicode="&#xe928;" glyph-name="sleet" d="M512 712c-88.982 0-168.601-50.564-207.441-128.001l-0.559 0.001c-92.784 0-168-75.216-168-168s75.216-168 168-168v48c-66.274 0-120 53.726-120 120s53.726 120 120 120c4.379 0 8.725-0.234 13.026-0.697l17.904-1.928 6.858 16.65c28.17 68.395 94.969 113.975 170.213 113.975 86.356 0 160.568-59.978 179.434-143.060l5.017-22.091 22.344 3.735c5.621 0.94 11.375 1.417 17.205 1.417 57.438 0 104-46.562 104-104 0-56.229-44.701-102.236-100.747-103.95l-3.62-0.052 0.733-47.997 3.987 0.064c82.32 2.516 147.647 69.751 147.647 151.936 0 82.5-65.726 149.649-147.672 151.94l-6.017 0.051-1.687-0.028c-30.62 94.097-118.931 160.037-220.623 160.037zM432 128c0-17.673-14.327-32-32-32s-32 14.327-32 32c0 17.673 14.327 32 32 32s32-14.327 32-32zM544 48c0-17.673-14.327-32-32-32s-32 14.327-32 32c0 17.673 14.327 32 32 32s32-14.327 32-32zM656 112c0-17.673-14.327-32-32-32s-32 14.327-32 32c0 17.673 14.327 32 32 32s32-14.327 32-32zM376 272v-72h48v72zM488 192v-71.671h48v71.671zM600 240v-71.671h48v71.671z" />
<glyph unicode="&#xe929;" glyph-name="snow" horiz-adv-x="1008" d="M504.123 715.815c-87.613 0-166.007-49.786-204.249-126.032l-0.551 0.001c-91.356 0-165.415-74.059-165.415-165.415s74.059-165.415 165.415-165.415v47.262c-65.255 0-118.154 52.899-118.154 118.154s52.899 118.154 118.154 118.154c4.312 0 8.59-0.23 12.825-0.686l17.628-1.898 6.752 16.394c27.737 67.343 93.508 112.221 167.594 112.221 85.027 0 158.098-59.056 176.674-140.859l4.939-21.752 22 3.677c5.535 0.925 11.2 1.395 16.94 1.395 56.554 0 102.4-45.846 102.4-102.4 0-55.363-44.013-100.663-99.197-102.351l-3.564-0.052 0.722-47.259 3.926 0.063c81.054 2.477 145.375 68.677 145.375 149.599 0 81.231-64.715 147.346-145.4 149.602l-5.925 0.050-1.662-0.027c-30.149 92.649-117.102 157.575-217.229 157.575zM409.6 344.466c0-17.401-14.106-31.508-31.508-31.508s-31.508 14.106-31.508 31.508c0 17.401 14.106 31.508 31.508 31.508s31.508-14.106 31.508-31.508zM472.615 251.156c0-17.401-14.106-31.508-31.508-31.508s-31.508 14.106-31.508 31.508c0 17.401 14.106 31.508 31.508 31.508s31.508-14.106 31.508-31.508zM598.646 251.156c0-17.401-14.106-31.508-31.508-31.508s-31.508 14.106-31.508 31.508c0 17.401 14.106 31.508 31.508 31.508s31.508-14.106 31.508-31.508zM535.631 344.466c0-17.401-14.106-31.508-31.508-31.508s-31.508 14.106-31.508 31.508c0 17.401 14.106 31.508 31.508 31.508s31.508-14.106 31.508-31.508zM661.662 344.466c0-17.401-14.106-31.508-31.508-31.508s-31.508 14.106-31.508 31.508c0 17.401 14.106 31.508 31.508 31.508s31.508-14.106 31.508-31.508zM409.6 156.286c0-17.401-14.106-31.508-31.508-31.508s-31.508 14.106-31.508 31.508c0 17.401 14.106 31.508 31.508 31.508s31.508-14.106 31.508-31.508zM535.631 156.286c0-17.401-14.106-31.508-31.508-31.508s-31.508 14.106-31.508 31.508c0 17.401 14.106 31.508 31.508 31.508s31.508-14.106 31.508-31.508zM661.662 156.286c0-17.401-14.106-31.508-31.508-31.508s-31.508 14.106-31.508 31.508c0 17.401 14.106 31.508 31.508 31.508s31.508-14.106 31.508-31.508z" />
<glyph unicode="&#xe92a;" glyph-name="strong-wind" d="M439.991 392l0.009-48-191.646-0.035c-13.496 0-24.359-10.779-24.359-23.983s10.862-23.983 24.354-23.983l335.383-0.052c53.153 0 96.283-42.946 96.283-95.974 0-51.823-41.192-94.017-92.675-95.908l-3.608-0.066v48c26.689 0 48.283 21.502 48.283 47.974 0 25.527-20.079 46.432-45.447 47.892l-2.84 0.082-343.379 0.052v0.435c-36.164 3.959-64.355 34.446-64.355 71.547 0 39.796 32.435 71.983 72.354 71.983l191.641 0.035zM631.733 536c53.153 0 96.283-42.946 96.283-95.974s-43.13-95.974-96.283-95.974h-155.101v48h155.101c26.689 0 48.283 21.502 48.283 47.974s-21.594 47.974-48.283 47.974v48zM883.146 136c46.444 0 84.87 35.338 84.87 79.98s-38.426 79.98-84.87 79.98h-179.146v-48h179.146c20.791 0 36.87-14.787 36.87-31.98s-16.079-31.98-36.87-31.98v-48zM819.162 472c46.444 0 84.87-35.338 84.87-79.98s-38.426-79.98-84.87-79.98l-67.17 0.023 0.017 48 67.162-0.023c20.782 0 36.862 14.787 36.862 31.98s-16.079 31.98-36.87 31.98v48z" />
<glyph unicode="&#xe92b;" glyph-name="thermometer-cold" d="M512 736c51.814 0 94.041-41.049 95.934-92.401l0.066-3.599 0.021-267.357c19.903-22.561 31.979-52.192 31.979-84.643 0-70.692-57.308-128-128-128s-128 57.308-128 128c0 32.459 12.082 62.096 31.994 84.659l0.006 267.341 0.066 3.599c1.893 51.352 44.119 92.401 95.934 92.401zM512 688c-25.834 0-47.019-20.463-47.942-45.284l-0.058-2.717-0.007-285.491-12.010-13.609c-12.825-14.533-19.984-33.096-19.984-52.899 0-44.183 35.817-80 80-80s80 35.817 80 80c0 19.798-7.155 38.357-19.975 52.889l-12.003 13.606-0.014 284.622-0.042 2.714c-0.947 25.706-22.132 46.169-47.966 46.169zM512 336c26.51 0 48-21.49 48-48s-21.49-48-48-48c-26.51 0-48 21.49-48 48s21.49 48 48 48z" />
<glyph unicode="&#xe92c;" glyph-name="thermometer-exterior" d="M512 736c51.814 0 94.041-41.049 95.934-92.401l0.066-3.599 0.021-267.357c19.903-22.561 31.979-52.192 31.979-84.643 0-70.692-57.308-128-128-128s-128 57.308-128 128c0 32.459 12.082 62.096 31.994 84.659l0.006 267.341 0.066 3.599c1.893 51.352 44.119 92.401 95.934 92.401zM512 688c-25.834 0-47.019-20.463-47.942-45.284l-0.058-2.717-0.007-285.491-12.010-13.609c-12.825-14.533-19.984-33.096-19.984-52.899 0-44.183 35.817-80 80-80s80 35.817 80 80c0 19.798-7.155 38.357-19.975 52.889l-12.003 13.606-0.014 284.622-0.042 2.714c-0.947 25.706-22.132 46.169-47.966 46.169z" />
<glyph unicode="&#xe92d;" glyph-name="thermometer-hot" d="M512 336c26.51 0 48-21.49 48-48s-21.49-48-48-48c-26.51 0-48 21.49-48 48s21.49 48 48 48zM536 320v320h-48v-320zM512 736c51.814 0 94.041-41.049 95.934-92.401l0.066-3.599 0.021-267.357c19.903-22.561 31.979-52.192 31.979-84.643 0-70.692-57.308-128-128-128s-128 57.308-128 128c0 32.459 12.082 62.096 31.994 84.659l0.006 267.341 0.066 3.599c1.893 51.352 44.119 92.401 95.934 92.401zM512 688c-25.834 0-47.019-20.463-47.942-45.284l-0.058-2.717-0.007-285.491-12.010-13.609c-12.825-14.533-19.984-33.096-19.984-52.899 0-44.183 35.817-80 80-80s80 35.817 80 80c0 19.798-7.155 38.357-19.975 52.889l-12.003 13.606-0.014 284.622-0.042 2.714c-0.947 25.706-22.132 46.169-47.966 46.169z" />
<glyph unicode="&#xe92e;" glyph-name="thermometer-internal" d="M536 320v320h-48v-320zM512 336c26.51 0 48-21.49 48-48s-21.49-48-48-48c-26.51 0-48 21.49-48 48s21.49 48 48 48z" />
<glyph unicode="&#xe92f;" glyph-name="thunderstorm" horiz-adv-x="1008" d="M469.010 316.295l55.188-78.841h-62.336l116.031-169.35 38.988 26.713-65.347 95.375h63.436l-107.241 153.205zM594.283 316.184l101.102-142.685 38.562 27.324-101.102 142.685zM311.55 316.184l101.102-142.685 38.562 27.324-101.102 142.685zM504.123 715.815c-87.613 0-166.007-49.786-204.249-126.032l-0.551 0.001c-91.356 0-165.415-74.059-165.415-165.415s74.059-165.415 165.415-165.415v47.262c-65.255 0-118.154 52.899-118.154 118.154s52.899 118.154 118.154 118.154c4.312 0 8.59-0.23 12.825-0.686l17.628-1.898 6.752 16.394c27.737 67.343 93.508 112.221 167.594 112.221 85.027 0 158.098-59.056 176.674-140.859l4.939-21.752 22 3.677c5.535 0.925 11.2 1.395 16.94 1.395 56.554 0 102.4-45.846 102.4-102.4 0-55.363-44.013-100.663-99.197-102.351l-3.564-0.052 0.722-47.259 3.926 0.063c81.054 2.477 145.375 68.677 145.375 149.599 0 81.231-64.715 147.346-145.4 149.602l-5.925 0.050-1.662-0.027c-30.149 92.649-117.102 157.575-217.229 157.575z" />
<glyph unicode="&#xe930;" glyph-name="tornado" d="M304.128 744c-39.821 0-72.128-32.221-72.128-72s32.307-72 72.128-72h559.744c13.34 0 24.128-10.76 24.128-24s-10.788-24-24.128-24h-511.744c-39.821 0-72.128-32.221-72.128-72s32.307-72 72.128-72h351.744c13.34 0 24.128-10.76 24.128-24s-10.788-24-24.128-24h-383.744c-39.821 0-72.128-32.221-72.128-72s32.307-72 72.128-72h191.744c13.34 0 24.128-10.76 24.128-24s-10.788-24-24.128-24h-31.744c-39.821 0-72.128-32.221-72.128-72s32.307-72 72.128-72v48c-13.34 0-24.128 10.76-24.128 24s10.788 24 24.128 24l39.53 0.415c36.162 3.875 64.342 34.434 64.342 71.585 0 39.779-32.307 72-72.128 72h-191.744c-13.34 0-24.128 10.76-24.128 24s10.788 24 24.128 24h383.744c39.821 0 72.128 32.221 72.128 72s-32.307 72-72.128 72h-351.744c-13.34 0-24.128 10.76-24.128 24s10.788 24 24.128 24h511.744c39.821 0 72.128 32.221 72.128 72s-32.307 72-72.128 72h-559.744c-13.34 0-24.128 10.76-24.128 24s10.788 24 24.128 24h481.305c47.933 0 86.567 39.519 86.567 88s-38.634 88-86.567 88h-610.867c-47.933 0-86.567-39.519-86.567-88s38.634-88 86.567-88v48c-21.177 0-38.567 17.788-38.567 40s17.39 40 38.567 40h610.867c21.177 0 38.567-17.788 38.567-40s-17.39-40-38.567-40h-481.305z" />
<glyph unicode="&#xe931;" glyph-name="windy1" horiz-adv-x="1008" d="M433.222 400.738l0.009-47.262-188.697-0.034c-13.288 0-23.984-10.613-23.984-23.614 0-12.897 10.525-23.444 23.661-23.612l448.958-0.002v-47.262h-456.862l-0.001 0.467c-35.441 4.054-63.019 33.996-63.019 70.408 0 39.184 31.936 70.875 71.241 70.875l188.693 0.034zM622.014 542.523c52.335 0 94.802-42.285 94.802-94.497s-42.467-94.497-94.802-94.497h-152.715v47.262h152.715c26.278 0 47.54 21.171 47.54 47.236s-21.262 47.236-47.54 47.236v47.262zM869.559 148.677c45.73 0 83.564 34.795 83.564 78.749s-37.834 78.749-83.564 78.749h-176.39v-47.262h176.39c20.471 0 36.303-14.56 36.303-31.488s-15.832-31.488-36.303-31.488v-47.262zM806.559 511.015c45.73 0 83.564-34.795 83.564-78.749s-37.834-78.749-83.564-78.749l-66.137 0.023 0.016 47.262 66.129-0.023c20.463 0 36.295 14.56 36.295 31.488s-15.832 31.488-36.303 31.488v47.262z" />
</font>
</defs>
</svg>
